<svg width="513" height="513" viewBox="0 0 513 513" fill="none" xmlns="http://www.w3.org/2000/svg">
<path d="M512.5 0.5H0.5V512.5H512.5V0.5Z" fill="#E7F1FA"/>
<path d="M81.06 512.996C81.06 512.996 115.57 343.656 264.06 343.656C412.55 343.656 431.94 512.996 431.94 512.996H81.06Z" fill="#DE5252"/>
<path d="M156.33 221.876C171.545 221.876 183.88 209.542 183.88 194.326C183.88 179.111 171.545 166.776 156.33 166.776C141.115 166.776 128.78 179.111 128.78 194.326C128.78 209.542 141.115 221.876 156.33 221.876Z" fill="#E58383"/>
<path d="M360.91 221.876C376.125 221.876 388.46 209.542 388.46 194.326C388.46 179.111 376.125 166.776 360.91 166.776C345.695 166.776 333.36 179.111 333.36 194.326C333.36 209.542 345.695 221.876 360.91 221.876Z" fill="#E58383"/>
<path d="M294.2 294.376L289.5 233.146L241.71 239.696L233.9 329.166C249.71 327.276 275.4 320.036 294.2 294.376Z" fill="#E59783"/>
<path d="M164.05 168.106C163.16 182.746 163.81 187.106 165.43 201.736C168.63 230.646 182.43 255.816 208.68 269.806C234.93 283.796 270.83 288.806 298.83 277.286C320.53 268.356 337.28 252.436 345.83 230.986C355.61 206.536 355.72 175.266 354.4 148.866C349.5 51.0764 269.9 52.5164 269.9 52.5164C269.9 52.5164 163.65 44.3764 164.05 168.106Z" fill="#F4B6A4"/>
<path d="M233.94 329.166L230.5 368.546C230.5 368.546 231.9 388.216 263.76 391.966C295.62 395.716 299.37 362.456 299.37 362.456L294.2 294.376C275.4 320.036 249.71 327.276 233.94 329.166Z" fill="#F4B6A4"/>
<path d="M220.44 187.776C220.44 193.176 218.25 197.556 215.55 197.556C212.85 197.556 210.66 193.176 210.66 187.776C210.66 182.376 212.84 177.996 215.55 177.996C218.26 177.996 220.44 182.376 220.44 187.776Z" fill="#323B44"/>
<path d="M310.95 189.436C310.95 194.836 308.76 199.216 306.06 199.216C303.36 199.216 301.17 194.836 301.17 189.436C301.17 184.036 303.36 179.656 306.06 179.656C308.76 179.656 310.95 184.026 310.95 189.436Z" fill="#323B44"/>
<path d="M260.12 194.376C258.041 195.245 256.02 196.247 254.07 197.376C253.117 197.942 252.213 198.587 251.37 199.306C250.529 199.94 249.947 200.856 249.73 201.886C249.733 202.394 249.865 202.892 250.114 203.335C250.362 203.777 250.719 204.149 251.15 204.416C251.956 205.14 252.923 205.661 253.97 205.936C255.04 206.178 256.156 206.112 257.19 205.746C258.258 205.409 259.252 204.873 260.12 204.166C259.344 205.035 258.369 205.702 257.279 206.109C256.188 206.517 255.015 206.653 253.86 206.506C252.693 206.268 251.607 205.73 250.71 204.946C250.234 204.581 249.818 204.142 249.48 203.646C249.108 203.108 248.935 202.458 248.99 201.806C249.07 201.18 249.315 200.587 249.7 200.086C250.051 199.607 250.461 199.174 250.92 198.796C251.803 198.052 252.765 197.408 253.79 196.876C255.804 195.819 257.927 194.981 260.12 194.376Z" fill="#323B44"/>
<path d="M246.5 217.256C247.46 218.113 248.48 218.902 249.55 219.616C250.604 220.339 251.71 220.98 252.86 221.536C255.116 222.705 257.593 223.387 260.13 223.536C261.385 223.598 262.642 223.494 263.87 223.226C265.099 222.934 266.29 222.501 267.42 221.936C269.674 220.722 271.717 219.152 273.47 217.286C271.906 219.374 269.941 221.129 267.69 222.446C265.376 223.752 262.744 224.386 260.09 224.276C257.461 224.111 254.901 223.359 252.6 222.076C250.306 220.831 248.242 219.201 246.5 217.256Z" fill="#323B44"/>
<path d="M217.33 217.726C217.33 219.764 216.726 221.755 215.594 223.449C214.462 225.143 212.854 226.463 210.972 227.242C209.09 228.022 207.019 228.226 205.021 227.829C203.023 227.431 201.187 226.45 199.747 225.01C198.306 223.569 197.325 221.734 196.928 219.736C196.53 217.738 196.734 215.667 197.514 213.785C198.294 211.903 199.614 210.294 201.308 209.162C203.001 208.031 204.993 207.426 207.03 207.426C209.762 207.426 212.382 208.512 214.313 210.443C216.245 212.375 217.33 214.995 217.33 217.726Z" fill="#E58383"/>
<path d="M321.25 215.676C321.25 217.714 320.646 219.705 319.514 221.399C318.382 223.093 316.774 224.413 314.892 225.192C313.01 225.972 310.939 226.176 308.941 225.779C306.943 225.381 305.107 224.4 303.667 222.96C302.226 221.519 301.245 219.684 300.848 217.686C300.45 215.688 300.654 213.617 301.434 211.735C302.214 209.853 303.534 208.244 305.228 207.112C306.921 205.981 308.913 205.376 310.95 205.376C312.303 205.376 313.642 205.643 314.892 206.16C316.141 206.678 317.277 207.437 318.233 208.393C319.19 209.35 319.948 210.485 320.466 211.735C320.984 212.984 321.25 214.324 321.25 215.676Z" fill="#E58383"/>
<path d="M295.39 162.686C296.943 160.532 298.963 158.758 301.3 157.496C303.664 156.185 306.337 155.533 309.04 155.606C311.73 155.714 314.354 156.469 316.69 157.806C317.845 158.45 318.948 159.182 319.99 159.996L321.48 161.296C321.96 161.746 322.42 162.216 322.87 162.686C320.86 161.043 318.669 159.634 316.34 158.486C314.056 157.352 311.558 156.712 309.01 156.606C306.467 156.537 303.944 157.075 301.65 158.176C300.481 158.727 299.372 159.398 298.34 160.176C297.279 160.917 296.291 161.758 295.39 162.686Z" fill="#323B44"/>
<path d="M197.16 162.686C198.71 160.53 200.731 158.755 203.07 157.496C205.434 156.185 208.107 155.533 210.81 155.606C213.5 155.714 216.124 156.469 218.46 157.806C219.614 158.452 220.717 159.184 221.76 159.996L223.25 161.296C223.72 161.746 224.19 162.216 224.64 162.686C222.628 161.046 220.438 159.637 218.11 158.486C215.826 157.352 213.328 156.712 210.78 156.606C208.237 156.54 205.715 157.078 203.42 158.176C202.251 158.727 201.142 159.398 200.11 160.176C199.049 160.917 198.061 161.758 197.16 162.686Z" fill="#323B44"/>
<path d="M164.05 168.106C163.95 169.286 177.3 109.346 194.35 101.106C186.6 115.546 183.88 117.616 183.88 117.616C183.88 117.616 210.37 114.476 220.44 96.3764C223.27 106.706 215.55 114.976 215.55 114.976C215.55 114.976 263.5 139.666 294.2 107.246C295.712 110.02 296.505 113.128 296.505 116.286C296.505 119.445 295.712 122.553 294.2 125.326C294.2 125.326 323.8 125.386 329.68 106.216C349.82 137.216 355.02 166.766 355.02 166.766C355.02 166.766 367.04 50.4764 264.94 52.3764C160.15 54.3764 165.6 149.376 164.05 168.106Z" fill="#323B44"/>
<path d="M273.5 54.7664C273.5 54.7664 267.94 34.8764 275.04 33.0964C282.14 31.3164 276.5 54.7664 276.5 54.7664C276.5 54.7664 281.5 34.5164 286.09 39.8464C290.68 45.1764 282.97 62.2264 273.5 54.7664Z" fill="#323B44"/>
</svg>
