<svg width="513" height="513" viewBox="0 0 513 513" fill="none" xmlns="http://www.w3.org/2000/svg">
<g clip-path="url(#clip0)">
<path d="M512.5 0.5H0.5V512.5H512.5V0.5Z" fill="#E7F1FA"/>
<path d="M262.64 405.748C308.18 407.628 312.77 371.628 312.58 355.608C296.806 350.725 280.372 348.307 263.86 348.438C247.578 348.352 231.37 350.643 215.75 355.238C214.65 370.248 217.28 403.878 262.64 405.748Z" fill="#E06767"/>
<path d="M312.58 355.608C312.77 371.608 308.18 407.608 262.64 405.748C217.28 403.878 214.64 370.248 215.75 355.238C111.83 386.248 85.98 513.038 85.98 513.038H426.98C426.98 513.038 412.63 387.248 312.58 355.608Z" fill="#FCCB6A"/>
<path d="M168.88 122.278C168.88 122.278 135.69 156.388 168.88 190.738C202.07 225.088 363.76 189.038 363.76 189.038C363.76 189.038 387.83 141.808 349.12 108.298C310.41 74.7883 220.28 85.1983 219.3 85.1983C218.32 85.1983 168.88 122.278 168.88 122.278Z" fill="#323B44"/>
<path d="M159.13 230.078C173.92 230.078 185.91 218.088 185.91 203.298C185.91 188.508 173.92 176.518 159.13 176.518C144.34 176.518 132.35 188.508 132.35 203.298C132.35 218.088 144.34 230.078 159.13 230.078Z" fill="#E58383"/>
<path d="M357.98 230.078C372.77 230.078 384.76 218.088 384.76 203.298C384.76 188.508 372.77 176.518 357.98 176.518C343.19 176.518 331.2 188.508 331.2 203.298C331.2 218.088 343.19 230.078 357.98 230.078Z" fill="#E58383"/>
<path d="M293.14 300.518L288.61 241.038L242.16 247.408L234.58 334.408C249.9 332.528 274.87 325.478 293.14 300.518Z" fill="#E59783"/>
<path d="M166.64 177.808C165.78 192.048 166.41 196.318 167.98 210.508C171.1 238.608 184.53 263.068 209.98 276.658C235.43 290.248 270.39 295.138 297.61 283.938C318.69 275.258 334.98 259.778 343.32 238.938C352.82 215.178 352.92 184.788 351.64 159.128C346.93 64.0383 269.5 65.4683 269.5 65.4683C269.5 65.4683 166.25 57.5083 166.64 177.808Z" fill="#F4B6A4"/>
<path d="M234.58 334.358L231.24 372.628C231.24 372.628 232.6 391.758 263.57 395.398C294.54 399.038 298.18 366.708 298.18 366.708L293.18 300.518C274.87 325.478 249.9 332.528 234.58 334.358Z" fill="#F4B6A4"/>
<path d="M221.5 196.928C221.5 202.178 219.37 206.438 216.74 206.438C214.11 206.438 211.99 202.178 211.99 196.928C211.99 191.678 214.12 187.428 216.74 187.428C219.36 187.428 221.5 191.678 221.5 196.928Z" fill="#323B44"/>
<path d="M309.43 198.538C309.43 203.788 307.3 208.048 304.67 208.048C302.04 208.048 299.92 203.788 299.92 198.538C299.92 193.288 302.05 189.038 304.67 189.038C307.29 189.038 309.43 193.298 309.43 198.538Z" fill="#323B44"/>
<path d="M260.02 203.298C257.997 204.14 256.033 205.116 254.14 206.218C253.213 206.763 252.337 207.389 251.52 208.088C250.71 208.706 250.146 209.593 249.93 210.588C249.941 211.08 250.072 211.562 250.313 211.991C250.553 212.42 250.896 212.783 251.31 213.048C252.094 213.748 253.033 214.252 254.05 214.518C255.086 214.753 256.168 214.691 257.17 214.338C258.21 214.012 259.177 213.49 260.02 212.798C259.266 213.645 258.318 214.295 257.257 214.694C256.196 215.093 255.055 215.228 253.93 215.088C252.794 214.859 251.739 214.334 250.87 213.568C250.355 213.241 249.932 212.788 249.638 212.254C249.344 211.719 249.19 211.118 249.19 210.508C249.265 209.898 249.507 209.32 249.89 208.838C250.225 208.367 250.622 207.943 251.07 207.578C251.925 206.853 252.862 206.229 253.86 205.718C255.82 204.692 257.885 203.881 260.02 203.298Z" fill="#323B44"/>
<path d="M246.81 225.588C247.756 226.42 248.758 227.185 249.81 227.878C250.836 228.577 251.912 229.199 253.03 229.738C255.219 230.866 257.621 231.517 260.08 231.648C261.301 231.707 262.524 231.61 263.72 231.358C264.91 231.069 266.064 230.646 267.16 230.098C269.357 228.928 271.347 227.404 273.05 225.588C271.534 227.614 269.626 229.314 267.44 230.588C265.189 231.855 262.631 232.475 260.05 232.378C257.49 232.214 255 231.479 252.76 230.228C250.526 229.033 248.514 227.463 246.81 225.588Z" fill="#323B44"/>
<path d="M211.94 232.478C217.463 232.478 221.94 228.001 221.94 222.478C221.94 216.955 217.463 212.478 211.94 212.478C206.417 212.478 201.94 216.955 201.94 222.478C201.94 228.001 206.417 232.478 211.94 232.478Z" fill="#E58383"/>
<path d="M304.67 235.588C310.193 235.588 314.67 231.111 314.67 225.588C314.67 220.065 310.193 215.588 304.67 215.588C299.147 215.588 294.67 220.065 294.67 225.588C294.67 231.111 299.147 235.588 304.67 235.588Z" fill="#E58383"/>
<path d="M251.42 236.738C251.42 236.738 265.68 241.028 272.04 236.738C272.04 250.738 271.12 263.738 266.9 262.638C262.68 261.538 262.77 254.738 262.77 254.738C262.77 254.738 263.23 267.408 258.45 266.308C253.67 265.208 253.45 250.698 253.45 250.698C253.45 250.698 253.45 259.698 247.94 257.488C242.43 255.278 251.42 236.738 251.42 236.738Z" fill="#323B44"/>
<path d="M237.58 198.538C237.58 198.538 262.64 181.118 281.38 198.538" stroke="white" stroke-miterlimit="10"/>
<path d="M203 141.418C201.034 144.797 198.408 147.744 195.277 150.085C192.147 152.425 188.576 154.11 184.78 155.038C174.1 157.618 160.08 157.758 154.47 143.468C144.86 119.038 159.13 101.038 159.13 101.038C159.13 101.038 126.6 74.5083 150.92 53.5383C175.24 32.5683 191.22 57.1983 191.22 57.1983C191.22 57.1983 194.15 34.8483 216.69 33.0983C239.23 31.3483 246.81 53.5383 246.81 53.5383C246.81 53.5383 259.81 31.8083 286.02 37.0483C312.23 42.2883 307.55 69.3683 307.55 69.3683C307.55 69.3683 316.18 63.2083 329.97 66.1283C352.26 70.8683 362.76 95.7983 357.97 121.128C354.83 137.798 358.47 153.128 361.33 161.638C363.25 167.358 360.26 171.848 357.97 171.408C352.03 170.248 351.13 112.408 328.74 113.978C327.68 126.728 321.79 147.578 304.47 142.658C300.325 141.319 296.689 138.744 294.05 135.278C289.58 129.798 287.42 122.798 282.47 117.678C279.2 114.25 275.355 111.421 271.11 109.318C261.04 104.438 249.64 104.958 239.53 109.428C221.64 117.388 210 129.468 203 141.418Z" fill="#323B44"/>
<path d="M289.75 176.518C291.653 173.902 294.056 171.689 296.82 170.008C299.615 168.246 302.768 167.128 306.05 166.738C307.716 166.584 309.394 166.628 311.05 166.868C312.679 167.135 314.268 167.605 315.78 168.268C318.744 169.592 321.39 171.536 323.54 173.968C320.96 172.205 318.163 170.78 315.22 169.728C312.349 168.762 309.304 168.421 306.29 168.728C303.263 169.087 300.324 169.981 297.61 171.368C294.8 172.776 292.162 174.504 289.75 176.518Z" fill="#323B44"/>
<path d="M231.24 173.968C229.258 171.242 226.634 169.047 223.6 167.578C220.626 166.189 217.359 165.544 214.08 165.698C212.428 165.744 210.784 165.945 209.17 166.298C208.35 166.428 207.55 166.678 206.73 166.868L204.32 167.598C201.105 168.728 197.951 170.023 194.87 171.478C197.593 169.32 200.584 167.525 203.77 166.138C207.008 164.703 210.483 163.876 214.02 163.698C217.629 163.537 221.209 164.408 224.34 166.208C227.419 167.981 229.84 170.704 231.24 173.968Z" fill="#323B44"/>
<path d="M237.58 168.308H166.28V220.208H237.58V168.308Z" stroke="white" stroke-miterlimit="10"/>
<path d="M352.26 169.998H281.38V221.898H352.26V169.998Z" stroke="white" stroke-miterlimit="10"/>
</g>
<defs>
<clipPath id="clip0">
<rect width="513" height="513" fill="white"/>
</clipPath>
</defs>
</svg>
