<svg width="513" height="513" viewBox="0 0 513 513" fill="none" xmlns="http://www.w3.org/2000/svg">
<g clip-path="url(#clip0)">
<path d="M512.5 0.5H0.5V512.5H512.5V0.5Z" fill="#E7F1FA"/>
<path d="M170.77 158.603C164.34 172.063 164.77 187.603 162.18 202.313C154.3 246.163 119.65 279.313 92.92 314.923C87.61 322.013 82.44 329.603 80.5 338.213C78.56 346.823 80.69 356.953 87.74 362.333C87.01 354.713 91 347.243 96.54 341.963C102.08 336.683 109.06 333.203 115.92 329.803C108.43 337.973 102.16 348.133 102.08 359.213C101.95 376.893 116.98 390.633 131.47 400.743C163.96 423.423 202.6 441.093 242 436.923C266.7 434.303 289.74 423.303 311 410.453C334.62 396.173 342.09 368.083 348 342.533C358.3 298.233 357.15 252.653 356.41 207.533C356.15 191.903 348.08 181.273 340.56 167.233C329.56 146.743 306.86 134.643 283.92 130.923C260.98 127.203 237.55 130.713 214.64 134.613C198.95 137.273 177.67 144.183 170.77 158.603Z" fill="#D05C5C"/>
<path d="M270.5 478.983C348.91 481.753 360.79 417.083 360.29 374.983C336.89 356.813 306.19 344.323 265.97 344.323C225.75 344.323 194.07 356.763 169.07 374.863C168.28 400.333 174.27 475.603 270.5 478.983Z" fill="#F4B6A4"/>
<path d="M360.24 374.993C360.74 417.083 348.86 481.753 270.45 478.993C174.27 475.593 168.28 400.343 169.02 374.883C101.9 423.473 83.64 513.003 83.64 513.003H433.12C433.12 513.003 422.88 423.603 360.24 374.993Z" fill="#323B44"/>
<path d="M185.312 201.925C188.807 187.179 179.685 172.392 164.938 168.898C150.192 165.404 135.405 174.526 131.911 189.272C128.417 204.019 137.539 218.806 152.285 222.3C167.032 225.794 181.818 216.672 185.312 201.925Z" fill="#E58383"/>
<path d="M389.071 201.935C392.565 187.189 383.443 172.402 368.697 168.908C353.951 165.414 339.164 174.536 335.67 189.282C332.176 204.028 341.298 218.815 356.044 222.309C370.79 225.803 385.577 216.681 389.071 201.935Z" fill="#E58383"/>
<path d="M295.93 295.223L291.29 234.223L243.69 240.763L235.91 329.873C251.62 328.023 277.2 320.813 295.93 295.223Z" fill="#E59783"/>
<path d="M202.5 164.453C257.28 152.453 268.16 98.0934 292.64 91.5634C286.46 102.363 305.64 167.983 356.51 167.993C356.44 161.993 356.23 155.993 355.94 150.333C351.07 52.9234 271.76 54.3334 271.76 54.3334C271.76 54.3334 167.76 46.3334 166.36 166.383C175.26 167.963 187.02 167.833 202.5 164.453Z" fill="#D05C5C"/>
<path d="M292.61 91.6034C268.13 98.1334 257.25 152.533 202.47 164.493C187.02 167.873 175.26 168.003 166.33 166.493C166.33 167.493 166.33 168.493 166.33 169.563C165.44 184.153 166.09 188.563 167.7 203.073C170.89 231.863 184.7 256.933 210.78 270.863C236.86 284.793 272.68 289.793 300.57 278.313C322.18 269.423 338.87 253.563 347.41 232.193C355.05 213.123 356.75 189.883 356.51 168.073C305.59 167.983 286.43 102.363 292.61 91.6034Z" fill="#F4B6A4"/>
<path d="M235.91 329.913L232.5 369.123C232.5 369.123 233.9 388.723 265.63 392.453C297.36 396.183 301.1 363.063 301.1 363.063L295.94 295.223C277.2 320.813 251.62 328.023 235.91 329.913Z" fill="#F4B6A4"/>
<path d="M222.5 189.083C222.5 194.463 220.32 198.823 217.63 198.823C214.94 198.823 212.76 194.463 212.76 189.083C212.76 183.703 214.94 179.343 217.63 179.343C220.32 179.343 222.5 183.703 222.5 189.083Z" fill="#323B44"/>
<path d="M312.61 190.733C312.61 196.113 310.43 200.473 307.74 200.473C305.05 200.473 302.87 196.113 302.87 190.733C302.87 185.353 305.05 180.993 307.74 180.993C310.43 180.993 312.61 185.353 312.61 190.733Z" fill="#323B44"/>
<path d="M261.99 195.603C259.928 196.473 257.923 197.475 255.99 198.603C255.039 199.159 254.138 199.798 253.3 200.513C252.468 201.148 251.89 202.06 251.67 203.083C251.673 203.591 251.805 204.089 252.054 204.531C252.302 204.974 252.659 205.346 253.09 205.613C253.89 206.332 254.85 206.85 255.89 207.123C256.953 207.36 258.062 207.295 259.09 206.933C260.158 206.596 261.152 206.06 262.02 205.353C261.249 206.221 260.277 206.887 259.189 207.293C258.102 207.699 256.931 207.833 255.78 207.683C254.617 207.457 253.535 206.921 252.65 206.133C252.168 205.771 251.749 205.332 251.41 204.833C251.046 204.3 250.876 203.657 250.93 203.013C251.009 202.387 251.254 201.793 251.64 201.293C251.99 200.817 252.397 200.383 252.85 200.003C253.727 199.263 254.687 198.625 255.71 198.103C257.707 197.046 259.813 196.208 261.99 195.603Z" fill="#323B44"/>
<path d="M248.5 218.453C249.447 219.299 250.449 220.081 251.5 220.793C252.549 221.514 253.652 222.153 254.8 222.703C257.042 223.873 259.506 224.555 262.03 224.703C263.281 224.764 264.535 224.663 265.76 224.403C266.983 224.113 268.168 223.68 269.29 223.113C271.525 221.906 273.551 220.346 275.29 218.493C273.73 220.569 271.772 222.313 269.53 223.623C267.227 224.918 264.61 225.552 261.97 225.453C259.347 225.289 256.794 224.537 254.5 223.253C252.244 222.003 250.215 220.38 248.5 218.453Z" fill="#323B44"/>
<path d="M212.72 225.153C218.381 225.153 222.97 220.564 222.97 214.903C222.97 209.242 218.381 204.653 212.72 204.653C207.059 204.653 202.47 209.242 202.47 214.903C202.47 220.564 207.059 225.153 212.72 225.153Z" fill="#E58383"/>
<path d="M307.74 229.763C313.401 229.763 317.99 225.174 317.99 219.513C317.99 213.852 313.401 209.263 307.74 209.263C302.079 209.263 297.49 213.852 297.49 219.513C297.49 225.174 302.079 229.763 307.74 229.763Z" fill="#E58383"/>
<path d="M275.31 60.9934C275.31 60.9934 267.8 34.3634 275.31 33.0534C282.82 31.7434 279.85 54.9734 279.85 54.9734C279.85 54.9734 284.78 40.2234 291.94 44.1334C299.1 48.0434 284.74 60.9134 275.31 60.9934Z" fill="#D05C5C"/>
</g>
<defs>
<clipPath id="clip0">
<rect width="513" height="513" fill="white"/>
</clipPath>
</defs>
</svg>
