<svg width="513" height="513" viewBox="0 0 513 513" fill="none" xmlns="http://www.w3.org/2000/svg">
<path d="M512.5 0.5H0.5V512.5H512.5V0.5Z" fill="#E7F1FA"/>
<path d="M359.66 242.37C368.61 257.63 381.07 270.46 392.41 284.05C403.75 297.64 414.28 312.6 418.2 329.86C424.83 358.97 409.32 391.64 382.58 404.92C369.95 411.19 355.73 413.32 341.75 415.16C290.08 421.95 237.06 425.79 186.25 414.16C172.6 411.05 158.92 406.7 147.64 398.41C136.36 390.12 127.71 377.37 127.31 363.37C126.7 342.03 144.14 325.08 153.22 305.75C162.76 285.44 163.01 262.13 162.34 239.69C162 228.27 161.53 216.42 165.87 205.84C171.56 191.97 184.59 182.54 197.87 175.51C227.099 160.079 259.936 152.778 292.95 154.37C311.9 155.32 342.7 164.01 348.09 185.63C349.87 192.75 348 200.68 348.49 207.95C349.31 220.17 353.5 231.88 359.66 242.37Z" fill="#6E5B56"/>
<path d="M81.27 512.97C81.27 512.97 115.74 343.83 264.06 343.83C412.38 343.83 431.73 512.97 431.73 512.97H81.27Z" fill="#656F85"/>
<path d="M156.45 222.19C171.649 222.19 183.97 209.869 183.97 194.67C183.97 179.471 171.649 167.15 156.45 167.15C141.251 167.15 128.93 179.471 128.93 194.67C128.93 209.869 141.251 222.19 156.45 222.19Z" fill="#E58383"/>
<path d="M360.79 222.19C375.989 222.19 388.31 209.869 388.31 194.67C388.31 179.471 375.989 167.15 360.79 167.15C345.591 167.15 333.27 179.471 333.27 194.67C333.27 209.869 345.591 222.19 360.79 222.19Z" fill="#E58383"/>
<path d="M294.15 294.58L289.5 233.45L241.77 240L233.97 329.37C249.72 327.47 275.38 320.23 294.15 294.58Z" fill="#E59783"/>
<path d="M164.16 168.48C163.27 183.11 163.93 187.48 165.54 202.08C168.74 230.96 182.54 256.08 208.74 270.08C234.94 284.08 270.82 289.08 298.74 277.56C320.41 268.64 337.14 252.74 345.74 231.31C355.5 206.89 355.61 175.66 354.29 149.31C349.41 51.6298 269.87 53.0798 269.87 53.0798C269.87 53.0798 163.76 44.8598 164.16 168.48Z" fill="#F4B6A4"/>
<path d="M233.97 329.37L230.5 368.68C230.5 368.68 231.9 388.34 263.72 392.08C295.54 395.82 299.29 362.6 299.29 362.6L294.11 294.6C275.38 320.23 249.72 327.47 233.97 329.37Z" fill="#F4B6A4"/>
<path d="M215.59 197.9C218.285 197.9 220.47 193.526 220.47 188.13C220.47 182.734 218.285 178.36 215.59 178.36C212.895 178.36 210.71 182.734 210.71 188.13C210.71 193.526 212.895 197.9 215.59 197.9Z" fill="#323B44"/>
<path d="M306 199.56C308.695 199.56 310.88 195.186 310.88 189.79C310.88 184.394 308.695 180.02 306 180.02C303.305 180.02 301.12 184.394 301.12 189.79C301.12 195.186 303.305 199.56 306 199.56Z" fill="#323B44"/>
<path d="M260.12 194.67C258.039 195.535 256.018 196.537 254.07 197.67C253.115 198.228 252.211 198.871 251.37 199.59C250.538 200.225 249.96 201.136 249.74 202.16C249.747 202.668 249.881 203.166 250.129 203.609C250.377 204.053 250.731 204.428 251.16 204.7C251.965 205.423 252.932 205.94 253.98 206.21C255.046 206.455 256.159 206.392 257.19 206.03C258.254 205.681 259.247 205.142 260.12 204.44C259.344 205.308 258.369 205.975 257.279 206.383C256.188 206.79 255.015 206.927 253.86 206.78C252.696 206.541 251.614 206.003 250.72 205.22C250.238 204.857 249.819 204.418 249.48 203.92C249.116 203.383 248.946 202.737 249 202.09C249.079 201.463 249.324 200.869 249.71 200.37C250.061 199.893 250.467 199.46 250.92 199.08C251.802 198.338 252.765 197.697 253.79 197.17C255.802 196.107 257.925 195.268 260.12 194.67Z" fill="#323B44"/>
<path d="M246.65 220.9C247.595 221.751 248.597 222.536 249.65 223.25C250.7 223.972 251.803 224.614 252.95 225.17C255.202 226.341 257.676 227.023 260.21 227.17C261.464 227.23 262.721 227.129 263.95 226.87C265.176 226.578 266.364 226.145 267.49 225.58C269.723 224.361 271.749 222.795 273.49 220.94C271.921 223.02 269.957 224.77 267.71 226.09C265.4 227.385 262.777 228.018 260.13 227.92C257.501 227.75 254.943 226.999 252.64 225.72C250.385 224.463 248.36 222.833 246.65 220.9Z" fill="#323B44"/>
<path d="M205.41 231.18C211.087 231.18 215.69 226.577 215.69 220.9C215.69 215.222 211.087 210.62 205.41 210.62C199.733 210.62 195.13 215.222 195.13 220.9C195.13 226.577 199.733 231.18 205.41 231.18Z" fill="#E58383"/>
<path d="M310.89 232.69C316.568 232.69 321.17 228.087 321.17 222.41C321.17 216.732 316.568 212.13 310.89 212.13C305.213 212.13 300.61 216.732 300.61 222.41C300.61 228.087 305.213 232.69 310.89 232.69Z" fill="#E58383"/>
<path d="M295.18 167.44C296.718 165.308 298.718 163.551 301.03 162.3C303.374 161.003 306.022 160.357 308.7 160.43C311.369 160.535 313.972 161.283 316.29 162.61C317.432 163.253 318.524 163.978 319.56 164.78L321.03 166.07C321.5 166.52 321.96 166.98 322.41 167.44C320.411 165.824 318.242 164.433 315.94 163.29C313.677 162.169 311.203 161.536 308.68 161.43C306.158 161.357 303.655 161.888 301.38 162.98C300.224 163.518 299.125 164.171 298.1 164.93C297.05 165.673 296.072 166.513 295.18 167.44Z" fill="#6E5B56"/>
<path d="M197.82 167.44C199.364 165.31 201.367 163.553 203.68 162.3C206.024 161.003 208.672 160.357 211.35 160.43C214.019 160.535 216.622 161.283 218.94 162.61C220.082 163.253 221.174 163.978 222.21 164.78L223.68 166.07C224.15 166.52 224.61 166.98 225.06 167.44C223.061 165.824 220.892 164.433 218.59 163.29C216.324 162.168 213.847 161.534 211.32 161.43C208.801 161.358 206.302 161.89 204.03 162.98C202.874 163.518 201.775 164.171 200.75 164.93C199.699 165.675 198.718 166.516 197.82 167.44Z" fill="#6E5B56"/>
<path d="M163.76 168.43C163.76 168.43 247.87 145.25 259.33 94.0298C278.42 135.56 322.03 163.67 354.91 167.78C354.91 167.78 366 49.1998 264.06 52.9298C162.12 56.6598 164.74 144.14 163.76 168.43Z" fill="#6E5B56"/>
<path d="M254.74 59.2398C254.74 59.2398 241.9 36.7198 247.22 33.4898C252.54 30.2598 257.04 53.3698 257.04 53.3698C257.04 53.3698 257.61 30.5898 265.04 33.2098C272.47 35.8298 264.32 60.0698 254.74 59.2398Z" fill="#6E5B56"/>
<path d="M171.23 485.96C171.228 487.437 170.788 488.88 169.966 490.107C169.144 491.334 167.977 492.29 166.612 492.854C165.247 493.418 163.745 493.564 162.297 493.275C160.848 492.986 159.518 492.274 158.474 491.228C157.431 490.183 156.72 488.852 156.433 487.404C156.145 485.955 156.294 484.453 156.86 483.089C157.425 481.725 158.383 480.558 159.611 479.738C160.839 478.918 162.283 478.48 163.76 478.48C164.742 478.48 165.714 478.673 166.621 479.049C167.528 479.425 168.352 479.977 169.046 480.671C169.739 481.366 170.289 482.191 170.664 483.098C171.039 484.006 171.231 484.978 171.23 485.96Z" fill="white"/>
<path d="M174.5 390.88C175.827 391.525 176.934 392.548 177.68 393.821C178.427 395.095 178.779 396.56 178.693 398.034C178.607 399.507 178.087 400.922 177.198 402.1C176.309 403.277 175.091 404.166 173.697 404.652C172.304 405.138 170.798 405.201 169.369 404.832C167.94 404.463 166.652 403.679 165.668 402.579C164.685 401.479 164.048 400.113 163.841 398.652C163.633 397.19 163.862 395.701 164.5 394.37C164.927 393.483 165.524 392.689 166.257 392.034C166.991 391.379 167.847 390.874 168.776 390.55C169.705 390.226 170.689 390.088 171.671 390.145C172.653 390.201 173.614 390.451 174.5 390.88Z" fill="white"/>
<path d="M319.33 479.23C320.657 479.876 321.763 480.9 322.509 482.174C323.255 483.448 323.606 484.914 323.519 486.387C323.432 487.861 322.911 489.275 322.02 490.453C321.13 491.63 319.911 492.517 318.517 493.002C317.123 493.487 315.617 493.549 314.188 493.178C312.759 492.808 311.472 492.023 310.489 490.922C309.506 489.82 308.872 488.453 308.665 486.991C308.459 485.53 308.69 484.04 309.33 482.71C309.755 481.822 310.352 481.028 311.086 480.372C311.82 479.716 312.676 479.212 313.606 478.888C314.535 478.565 315.519 478.428 316.502 478.487C317.484 478.546 318.445 478.798 319.33 479.23Z" fill="white"/>
<path d="M259.75 433.54C261.077 434.186 262.183 435.21 262.929 436.484C263.675 437.758 264.026 439.224 263.939 440.697C263.852 442.171 263.331 443.585 262.44 444.763C261.55 445.94 260.331 446.827 258.937 447.312C257.543 447.797 256.037 447.859 254.608 447.488C253.179 447.118 251.892 446.333 250.909 445.232C249.926 444.13 249.292 442.763 249.085 441.301C248.879 439.84 249.11 438.35 249.75 437.02C250.176 436.133 250.774 435.339 251.508 434.684C252.242 434.029 253.098 433.525 254.027 433.202C254.956 432.879 255.94 432.742 256.922 432.8C257.904 432.858 258.865 433.109 259.75 433.54Z" fill="white"/>
<path d="M327.15 374.48C328.477 375.126 329.583 376.152 330.328 377.426C331.072 378.701 331.423 380.167 331.335 381.641C331.247 383.114 330.724 384.529 329.833 385.705C328.942 386.882 327.722 387.768 326.327 388.252C324.932 388.736 323.426 388.796 321.997 388.425C320.569 388.053 319.282 387.266 318.3 386.164C317.318 385.062 316.685 383.693 316.48 382.231C316.276 380.769 316.509 379.279 317.15 377.95C317.576 377.063 318.174 376.27 318.908 375.615C319.642 374.96 320.499 374.457 321.428 374.134C322.357 373.812 323.341 373.676 324.324 373.735C325.306 373.795 326.266 374.048 327.15 374.48Z" fill="white"/>
<path d="M384.76 441.37C386.091 442.015 387.2 443.04 387.949 444.316C388.697 445.591 389.05 447.06 388.964 448.536C388.878 450.012 388.356 451.43 387.465 452.61C386.573 453.79 385.352 454.679 383.955 455.165C382.559 455.651 381.049 455.712 379.618 455.341C378.186 454.969 376.897 454.182 375.913 453.078C374.929 451.974 374.294 450.603 374.089 449.139C373.884 447.674 374.117 446.182 374.76 444.85C375.625 443.063 377.165 441.692 379.04 441.04C380.915 440.387 382.972 440.506 384.76 441.37Z" fill="white"/>
</svg>
