<svg width="513" height="513" viewBox="0 0 513 513" fill="none" xmlns="http://www.w3.org/2000/svg">
<g clip-path="url(#clip0)">
<path d="M512.5 0.5H0.5V512.5H512.5V0.5Z" fill="#E7F1FA"/>
<path d="M155.79 168.143C155.79 168.143 137.93 112.643 183.14 90.7127C228.35 68.7827 346.22 89.5727 346.22 89.5727C346.22 89.5727 360 167.683 345.41 177.883C330.82 188.083 155.79 168.143 155.79 168.143Z" fill="#323B44"/>
<path d="M182.746 199.024C186.273 184.138 177.065 169.211 162.178 165.684C147.292 162.156 132.365 171.365 128.838 186.251C125.311 201.137 134.519 216.064 149.405 219.591C164.292 223.118 179.219 213.91 182.746 199.024Z" fill="#E58383"/>
<path d="M372.024 218.218C386.169 212.391 392.912 196.2 387.084 182.055C381.257 167.91 365.066 161.167 350.921 166.995C336.776 172.822 330.034 189.013 335.861 203.158C341.688 217.303 357.879 224.045 372.024 218.218Z" fill="#E58383"/>
<path d="M294.4 293.183L289.72 231.653L241.67 238.243L233.82 328.193C249.68 326.293 275.5 319.003 294.4 293.183Z" fill="#E59783"/>
<path d="M332.55 222.103C329.88 227.933 328.49 234.313 325.42 239.933C317.12 255.113 297.62 261.423 281.96 254.043C277.37 251.873 273.17 248.623 268.17 247.703C265.858 247.294 263.483 247.404 261.218 248.023C258.953 248.642 256.853 249.755 255.07 251.283C252.07 253.863 250.07 257.563 246.67 259.493C244.186 260.714 241.436 261.299 238.67 261.193C224.12 261.343 211.87 254.613 203.53 242.943C195.97 232.363 191.23 219.793 182.02 210.413C177.02 205.323 170.94 201.503 164.75 197.913C164.83 198.613 164.91 199.323 165 200.083C168.21 229.143 182.11 254.453 208.48 268.513C234.85 282.573 270.96 287.623 299.11 276.033C320.92 267.033 337.76 251.033 346.39 229.483C349.642 221.064 351.934 212.305 353.22 203.373C344.22 206.003 336.5 213.433 332.55 222.103Z" fill="#323B44"/>
<path d="M354.95 146.933C350.03 48.6127 269.95 50.0627 269.95 50.0627C269.95 50.0627 163.13 41.8327 163.54 166.263C162.69 180.263 163.24 184.943 164.68 197.913C170.87 201.503 176.95 205.323 181.95 210.413C195.13 223.843 199.81 245.023 215.7 255.093C222.11 259.153 229.78 260.923 237.37 261.153C241.08 261.263 245.03 260.933 248.01 258.733C250.29 257.053 251.72 254.493 253.67 252.443C255.604 250.462 258.006 249.001 260.654 248.193C263.301 247.386 266.11 247.258 268.82 247.823C273.52 248.823 277.48 251.903 281.82 253.983C289.496 257.667 298.293 258.269 306.399 255.665C314.506 253.06 321.306 247.448 325.4 239.983C328.47 234.363 329.86 227.983 332.53 222.153C336.53 213.483 344.2 206.013 353.15 203.423C356.07 184.713 355.84 164.723 354.95 146.933Z" fill="#F4B6A4"/>
<path d="M80.12 513.003C80.12 513.003 114.82 342.753 264.12 342.753C413.42 342.753 432.88 513.003 432.88 513.003H80.12Z" fill="#B7D8DA"/>
<path d="M233.82 328.193L230.37 367.773C230.37 367.773 232.08 366.913 264.11 370.673C296.14 374.433 298.42 346.003 298.42 346.003L294.42 293.143C275.5 319.003 249.68 326.293 233.82 328.193Z" fill="#F4B6A4"/>
<path d="M220.24 186.003C220.24 191.433 218.04 195.833 215.33 195.833C212.62 195.833 210.41 191.433 210.41 186.003C210.41 180.573 212.61 176.173 215.33 176.173C218.05 176.173 220.24 180.613 220.24 186.003Z" fill="#323B44"/>
<path d="M306.33 197.543C309.047 197.543 311.25 193.142 311.25 187.713C311.25 182.284 309.047 177.883 306.33 177.883C303.613 177.883 301.41 182.284 301.41 187.713C301.41 193.142 303.613 197.543 306.33 197.543Z" fill="#323B44"/>
<path d="M269.5 192.623C267.408 193.491 265.374 194.494 263.41 195.623C262.45 196.191 261.54 196.84 260.69 197.563C259.851 198.201 259.269 199.121 259.05 200.153C259.057 200.665 259.191 201.167 259.441 201.614C259.691 202.061 260.048 202.438 260.48 202.713C261.29 203.441 262.265 203.962 263.32 204.233C264.393 204.475 265.513 204.409 266.55 204.043C267.626 203.7 268.627 203.157 269.5 202.443C268.721 203.319 267.74 203.991 266.642 204.402C265.544 204.814 264.363 204.951 263.2 204.803C262.028 204.565 260.938 204.023 260.04 203.233C259.558 202.867 259.139 202.424 258.8 201.923C258.428 201.385 258.255 200.734 258.31 200.083C258.388 199.453 258.633 198.856 259.02 198.353C259.374 197.873 259.783 197.436 260.24 197.053C261.127 196.305 262.097 195.661 263.13 195.133C265.158 194.072 267.294 193.231 269.5 192.623Z" fill="#323B44"/>
<path d="M250.55 225.073C251.517 225.93 252.543 226.718 253.62 227.433C254.679 228.164 255.792 228.812 256.95 229.373C259.217 230.542 261.704 231.224 264.25 231.373C265.512 231.435 266.776 231.331 268.01 231.063C269.245 230.764 270.442 230.328 271.58 229.763C273.851 228.548 275.908 226.97 277.67 225.093C276.092 227.188 274.114 228.948 271.85 230.273C269.526 231.58 266.885 232.217 264.22 232.113C261.574 231.944 258.999 231.189 256.68 229.903C254.378 228.651 252.305 227.018 250.55 225.073Z" fill="#323B44"/>
<path d="M210.41 223.693C216.126 223.693 220.76 219.059 220.76 213.343C220.76 207.627 216.126 202.993 210.41 202.993C204.694 202.993 200.06 207.627 200.06 213.343C200.06 219.059 204.694 223.693 210.41 223.693Z" fill="#E58383"/>
<path d="M309.95 226.033C315.666 226.033 320.3 221.399 320.3 215.683C320.3 209.967 315.666 205.333 309.95 205.333C304.234 205.333 299.6 209.967 299.6 215.683C299.6 221.399 304.234 226.033 309.95 226.033Z" fill="#E58383"/>
<path d="M291.76 168.143C293.735 165.446 296.222 163.166 299.08 161.433C301.968 159.62 305.224 158.472 308.61 158.073C310.319 157.911 312.041 157.954 313.74 158.203C315.425 158.479 317.071 158.959 318.64 159.633C321.691 161.008 324.417 163.012 326.64 165.513C323.98 163.674 321.092 162.189 318.05 161.093C315.07 160.102 311.913 159.761 308.79 160.093C305.651 160.465 302.604 161.393 299.79 162.833C296.92 164.291 294.226 166.073 291.76 168.143Z" fill="#323B44"/>
<path d="M231.23 165.513C229.192 162.682 226.485 160.401 223.35 158.873C220.273 157.409 216.884 156.722 213.48 156.873C211.771 156.921 210.07 157.128 208.4 157.493C207.55 157.633 206.72 157.893 205.88 158.083L203.38 158.843C200.058 160.003 196.8 161.338 193.62 162.843C196.439 160.619 199.535 158.77 202.83 157.343C206.178 155.869 209.767 155.018 213.42 154.833C217.146 154.67 220.841 155.565 224.08 157.413C227.281 159.263 229.791 162.107 231.23 165.513Z" fill="#323B44"/>
<path d="M291.36 213.773C282.8 217.063 276.9 196.663 266.45 204.643C266.45 204.643 266.07 204.943 264.68 204.703V204.433L264.11 204.583L263.54 204.433V204.703C262.15 204.943 261.77 204.643 261.77 204.643C251.32 196.643 245.42 217.063 236.86 213.773C244.55 219.773 249.66 221.563 264.11 213.973C278.56 221.563 283.67 219.823 291.36 213.773Z" fill="#323B44"/>
<path d="M351.92 163.543C338.63 160.003 328.5 90.8127 306.33 89.6827C284.16 88.5527 212.02 158.583 172.13 126.793C132.24 95.0027 140.21 55.1027 147.81 52.0627C155.41 49.0227 158.5 68.4027 158.5 68.4027C158.5 68.4027 156.19 47.1227 164.75 45.6127C173.31 44.1027 174.46 64.2227 174.46 64.2227C174.46 64.2227 169.46 39.5327 183.54 39.1527C197.62 38.7727 190.03 63.0827 190.03 63.0827C190.03 63.0827 283.2 5.29267 311.24 50.0027C370.12 62.2127 365.22 167.123 351.92 163.543Z" fill="#323B44"/>
<path d="M309.95 53.2127C309.95 53.2127 313.57 33.5727 318.42 33.0127C323.27 32.4527 314.19 50.6527 314.19 50.6527C314.19 50.6527 322.5 40.0027 324.89 43.1127C327.28 46.2227 314.16 55.9127 309.95 53.2127Z" fill="#323B44"/>
<path d="M232.58 342.403L264.11 370.673L246.36 405.323C246.36 405.323 215.84 381.223 217.36 348.913C234.5 320.433 233.66 330.003 233.66 330.003L232.58 342.403Z" fill="#A5B9B9"/>
<path d="M297.61 342.403L264.11 370.673L283.83 405.323C283.83 405.323 314.35 381.223 312.83 348.913C295.69 320.433 296.5 330.003 296.5 330.003L297.61 342.403Z" fill="#A5B9B9"/>
<path d="M268.08 405.323C268.082 406.053 267.867 406.767 267.463 407.375C267.059 407.984 266.483 408.458 265.809 408.739C265.135 409.02 264.393 409.094 263.676 408.953C262.96 408.812 262.301 408.461 261.784 407.945C261.267 407.43 260.915 406.772 260.772 406.056C260.628 405.34 260.701 404.598 260.98 403.923C261.259 403.248 261.732 402.671 262.339 402.265C262.946 401.859 263.66 401.643 264.39 401.643C264.874 401.641 265.354 401.736 265.801 401.92C266.249 402.104 266.656 402.375 266.999 402.717C267.341 403.059 267.613 403.465 267.799 403.912C267.984 404.359 268.08 404.839 268.08 405.323Z" fill="white"/>
<path d="M268.08 465.843C268.08 466.572 267.864 467.286 267.458 467.893C267.053 468.5 266.476 468.972 265.802 469.252C265.128 469.531 264.386 469.604 263.67 469.462C262.954 469.319 262.297 468.968 261.781 468.452C261.265 467.936 260.913 467.278 260.771 466.563C260.628 465.847 260.702 465.105 260.981 464.431C261.26 463.756 261.733 463.18 262.34 462.775C262.947 462.369 263.66 462.153 264.39 462.153C265.369 462.153 266.307 462.541 266.999 463.233C267.691 463.925 268.08 464.864 268.08 465.843Z" fill="white"/>
</g>
<defs>
<clipPath id="clip0">
<rect width="513" height="513" fill="white"/>
</clipPath>
</defs>
</svg>
