<svg width="513" height="513" viewBox="0 0 513 513" fill="none" xmlns="http://www.w3.org/2000/svg">
<path d="M512.5 0.5H0.5V512.5H512.5V0.5Z" fill="#E7F1FA"/>
<path d="M351.5 127.348L365.69 266.088C365.69 266.088 394.69 256.508 411.91 281.668C429.13 306.828 404.91 315.438 404.86 315.438C407.61 314.438 416.65 325.248 417.97 326.868C424.97 335.508 433.26 351.208 423.66 360.958C418.49 366.188 410.78 366.258 404.24 363.958C399.24 362.198 389.19 356.628 388.14 350.698C394.68 387.518 361.88 396.918 354.78 396.138C347.68 395.358 268.78 368.718 268.78 368.718L241.14 392.528L180.82 381.248C180.82 381.248 129.9 403.188 119.72 364.798C114.29 344.328 120.99 323.188 140.9 314.188C131.71 316.058 121.9 315.788 113.33 311.878C104.76 307.968 97.8601 300.038 96.5701 290.748C93.4301 268.108 119.3 263.148 136.17 264.528L169.5 125.058L351.5 127.348Z" fill="#F48369"/>
<path d="M81.5 512.978C81.5 512.978 115.93 343.978 264.09 343.978C412.25 343.978 431.5 512.978 431.5 512.978H81.5Z" fill="#FCCB6A"/>
<path d="M156.56 222.518C171.742 222.518 184.05 210.21 184.05 195.028C184.05 179.846 171.742 167.538 156.56 167.538C141.378 167.538 129.07 179.846 129.07 195.028C129.07 210.21 141.378 222.518 156.56 222.518Z" fill="#E58383"/>
<path d="M360.67 222.518C375.852 222.518 388.16 210.21 388.16 195.028C388.16 179.846 375.852 167.538 360.67 167.538C345.488 167.538 333.18 179.846 333.18 195.028C333.18 210.21 345.488 222.518 360.67 222.518Z" fill="#E58383"/>
<path d="M294.11 294.828L289.5 233.758L241.83 240.308L234.03 329.568C249.73 327.678 275.36 320.448 294.11 294.828Z" fill="#E59783"/>
<path d="M164.26 168.868C163.37 183.488 164.03 187.868 165.64 202.428C168.83 231.278 182.64 256.428 208.79 270.338C234.94 284.248 270.79 289.338 298.79 277.808C320.43 268.898 337.15 253.018 345.71 231.608C355.47 207.218 355.57 176.018 354.25 149.688C349.37 52.108 269.92 53.558 269.92 53.558C269.92 53.558 163.86 45.388 164.26 168.868Z" fill="#F4B6A4"/>
<path d="M233.99 329.568L230.57 368.848C230.57 368.848 231.97 388.488 263.75 392.228C295.53 395.968 299.28 362.778 299.28 362.778L294.11 294.828C275.36 320.448 249.73 327.678 233.99 329.568Z" fill="#F4B6A4"/>
<path d="M215.64 198.258C218.335 198.258 220.52 193.888 220.52 188.498C220.52 183.108 218.335 178.738 215.64 178.738C212.945 178.738 210.76 183.108 210.76 188.498C210.76 193.888 212.945 198.258 215.64 198.258Z" fill="#323B44"/>
<path d="M305.95 199.918C308.645 199.918 310.83 195.548 310.83 190.158C310.83 184.768 308.645 180.398 305.95 180.398C303.255 180.398 301.07 184.768 301.07 190.158C301.07 195.548 303.255 199.918 305.95 199.918Z" fill="#323B44"/>
<path d="M260.11 195.028C258.048 195.898 256.043 196.9 254.11 198.028C253.155 198.586 252.251 199.229 251.41 199.948C250.578 200.583 250 201.494 249.78 202.518C249.783 203.025 249.915 203.524 250.164 203.966C250.412 204.409 250.769 204.781 251.2 205.048C252 205.772 252.965 206.291 254.01 206.558C255.076 206.803 256.189 206.74 257.22 206.378C258.282 206.031 259.272 205.492 260.14 204.788C259.367 205.657 258.394 206.324 257.305 206.732C256.216 207.14 255.044 207.276 253.89 207.128C252.727 206.893 251.647 206.355 250.76 205.568C250.276 205.208 249.857 204.769 249.52 204.268C249.156 203.73 248.983 203.086 249.03 202.438C249.116 201.815 249.365 201.225 249.75 200.728C250.095 200.247 250.502 199.813 250.96 199.438C251.837 198.694 252.797 198.053 253.82 197.528C255.824 196.477 257.932 195.639 260.11 195.028Z" fill="#323B44"/>
<path d="M208.28 230.358C213.952 230.358 218.55 225.76 218.55 220.088C218.55 214.416 213.952 209.818 208.28 209.818C202.608 209.818 198.01 214.416 198.01 220.088C198.01 225.76 202.608 230.358 208.28 230.358Z" fill="#E58383"/>
<path d="M310.83 232.788C316.502 232.788 321.1 228.19 321.1 222.518C321.1 216.846 316.502 212.248 310.83 212.248C305.158 212.248 300.56 216.846 300.56 222.518C300.56 228.19 305.158 232.788 310.83 232.788Z" fill="#E58383"/>
<g style="mix-blend-mode:multiply" opacity="0.64">
<path d="M249.97 221.978C249.97 221.978 252.97 216.838 256.64 218.458C260.31 220.078 259.83 221.288 259.83 221.288C259.83 221.288 262.33 218.428 265.25 218.138C268.17 217.848 271.78 221.358 271.78 221.358C271.78 221.358 262.08 240.798 249.97 221.978Z" fill="#E06767"/>
</g>
<path d="M246.56 219.208C247.502 220.062 248.505 220.848 249.56 221.558C250.608 222.281 251.711 222.919 252.86 223.468C255.109 224.638 257.58 225.319 260.11 225.468C261.361 225.529 262.615 225.428 263.84 225.168C265.064 224.869 266.251 224.436 267.38 223.878C269.616 222.663 271.642 221.096 273.38 219.238C271.817 221.32 269.856 223.071 267.61 224.388C265.303 225.683 262.684 226.316 260.04 226.218C257.414 226.049 254.859 225.297 252.56 224.018C250.301 222.768 248.271 221.142 246.56 219.208Z" fill="#323B44"/>
<path d="M264.05 55.978C264.05 55.978 257.18 34.098 264.05 33.038C270.92 31.978 267.4 53.448 267.4 53.448C267.4 53.448 270.57 39.038 277.28 42.918C283.99 46.798 269.22 58.168 264.05 55.978Z" fill="#F48369"/>
<path d="M305.95 182.258C305.95 182.258 314.89 181.948 317.57 176.608C317.57 184.858 307.85 188.498 307.85 188.498L305.95 182.258Z" fill="#323B44"/>
<path d="M214.09 180.398C214.09 180.398 205.09 180.078 202.47 174.738C202.47 182.998 212.18 186.638 212.18 186.638L214.09 180.398Z" fill="#323B44"/>
<path d="M349.5 114.388C347.218 108.155 344.502 102.09 341.37 96.238C335.309 84.5995 326.355 74.7161 315.37 67.538C305.724 61.2735 294.922 57.003 283.6 54.978C264.94 51.638 245.66 54.268 227.79 60.188C213.01 65.068 194.54 77.888 185.87 89.578C179.77 97.798 167.59 114.128 164.74 154.328C164.74 154.328 209.32 159.238 254.74 113.878C252.94 137.138 241.67 146.138 241.67 146.138C241.67 146.138 280.22 145.048 289.17 111.318C318.58 130.868 305.95 150.168 305.95 150.168C305.95 150.168 325.41 146.488 338.4 133.758C337.68 134.458 338.55 139.388 338.63 140.428C338.811 142.731 339.128 145.022 339.58 147.288C340.365 151.592 341.953 155.71 344.26 159.428C346.08 162.208 350.15 167.258 353.75 167.708C357.75 168.198 358.02 156.638 357.97 153.708C357.77 140.308 354.11 126.918 349.5 114.388Z" fill="#F48369"/>
<path d="M137.6 401.408C137.6 401.408 156.92 512.978 156.56 512.978H363.87L390.14 407.678C390.14 407.678 375.5 388.978 367.06 381.868C365.2 396.168 334.06 487.118 334.06 487.118L184.06 489.468L163.86 376.908C163.86 376.908 145.5 390.568 137.6 401.408Z" fill="#E06767"/>
</svg>
