<svg width="513" height="513" viewBox="0 0 513 513" fill="none" xmlns="http://www.w3.org/2000/svg">
<path d="M512.5 0.5H0.5V512.5H512.5V0.5Z" fill="#E7F1FA"/>
<path d="M167.08 98.859C167.08 98.859 145.49 172.209 158.66 179.519C171.83 186.829 174.1 179.519 174.1 179.519L192.1 104.979L167.08 98.859Z" fill="#FCCB6A"/>
<path d="M365.78 173.079C365.78 173.079 376.3 84.549 354.64 85.079C332.98 85.609 325.26 177.479 365.78 173.079Z" fill="#FCCB6A"/>
<path d="M81.74 512.999C81.74 512.999 116.12 344.319 264.04 344.319C411.96 344.319 431.26 512.999 431.26 512.999H81.74Z" fill="#323B44"/>
<path d="M156.72 223.019C171.88 223.019 184.17 210.729 184.17 195.569C184.17 180.409 171.88 168.119 156.72 168.119C141.56 168.119 129.27 180.409 129.27 195.569C129.27 210.729 141.56 223.019 156.72 223.019Z" fill="#E58383"/>
<path d="M360.5 223.019C375.66 223.019 387.95 210.729 387.95 195.569C387.95 180.409 375.66 168.119 360.5 168.119C345.34 168.119 333.05 180.409 333.05 195.569C333.05 210.729 345.34 223.019 360.5 223.019Z" fill="#E58383"/>
<path d="M294.05 295.199L289.41 234.199L241.81 240.739L234.03 329.859C249.74 327.999 275.33 320.779 294.05 295.199Z" fill="#F9AE9C"/>
<path d="M164.41 169.449C163.52 184.039 164.18 188.449 165.79 202.949C168.97 231.749 182.79 256.819 208.87 270.749C234.95 284.679 270.78 289.689 298.67 278.209C320.28 269.309 336.97 253.459 345.51 232.079C355.26 207.729 355.36 176.589 354.05 150.289C349.17 52.879 269.85 54.289 269.85 54.289C269.85 54.289 164.01 46.159 164.41 169.449Z" fill="#FBC3B5"/>
<path d="M234.03 329.889L230.61 369.109C230.61 369.109 232.01 388.709 263.74 392.439C295.47 396.169 299.21 362.999 299.21 362.999L294.05 295.159C275.33 320.779 249.74 327.999 234.03 329.889Z" fill="#FBC3B5"/>
<path d="M215.71 198.779C218.4 198.779 220.58 194.418 220.58 189.039C220.58 183.66 218.4 179.299 215.71 179.299C213.02 179.299 210.84 183.66 210.84 189.039C210.84 194.418 213.02 198.779 215.71 198.779Z" fill="#323B44"/>
<path d="M305.87 200.429C308.56 200.429 310.74 196.068 310.74 190.689C310.74 185.31 308.56 180.949 305.87 180.949C303.18 180.949 301 185.31 301 190.689C301 196.068 303.18 200.429 305.87 200.429Z" fill="#323B44"/>
<path d="M260.11 195.569C258.048 196.439 256.043 197.441 254.11 198.569C253.161 199.132 252.261 199.774 251.42 200.489C250.588 201.124 250.01 202.035 249.79 203.059C249.795 203.565 249.928 204.061 250.176 204.501C250.425 204.942 250.78 205.313 251.21 205.579C252.008 206.301 252.968 206.819 254.01 207.089C255.076 207.334 256.189 207.272 257.22 206.909C258.284 206.57 259.274 206.034 260.14 205.329C259.367 206.195 258.395 206.859 257.308 207.265C256.221 207.671 255.051 207.806 253.9 207.659C252.739 207.426 251.659 206.891 250.77 206.109C250.291 205.744 249.872 205.305 249.53 204.809C249.165 204.272 248.995 203.626 249.05 202.979C249.128 202.355 249.374 201.765 249.76 201.269C250.105 200.788 250.512 200.354 250.97 199.979C251.847 199.235 252.807 198.594 253.83 198.069C255.827 197.012 257.933 196.174 260.11 195.569Z" fill="#323B44"/>
<path d="M246.57 218.409C247.514 219.261 248.517 220.046 249.57 220.759C250.619 221.48 251.722 222.119 252.87 222.669C255.112 223.839 257.576 224.52 260.1 224.669C261.351 224.73 262.605 224.629 263.83 224.369C265.07 224.056 266.269 223.596 267.4 222.999C269.638 221.791 271.664 220.228 273.4 218.369C271.845 220.452 269.886 222.201 267.64 223.509C265.337 224.805 262.721 225.438 260.08 225.339C257.457 225.173 254.904 224.421 252.61 223.139C250.343 221.916 248.301 220.317 246.57 218.409Z" fill="#323B44"/>
<path d="M200.58 235.279C206.241 235.279 210.83 230.69 210.83 225.029C210.83 219.368 206.241 214.779 200.58 214.779C194.919 214.779 190.33 219.368 190.33 225.029C190.33 230.69 194.919 235.279 200.58 235.279Z" fill="#E58383"/>
<path d="M316.12 235.279C321.781 235.279 326.37 230.69 326.37 225.029C326.37 219.368 321.781 214.779 316.12 214.779C310.459 214.779 305.87 219.368 305.87 225.029C305.87 230.69 310.459 235.279 316.12 235.279Z" fill="#E58383"/>
<path d="M198.49 222.009C219.366 222.009 236.29 205.085 236.29 184.209C236.29 163.333 219.366 146.409 198.49 146.409C177.614 146.409 160.69 163.333 160.69 184.209C160.69 205.085 177.614 222.009 198.49 222.009Z" stroke="white" stroke-miterlimit="10"/>
<path d="M320.16 222.009C341.036 222.009 357.96 205.085 357.96 184.209C357.96 163.333 341.036 146.409 320.16 146.409C299.284 146.409 282.36 163.333 282.36 184.209C282.36 205.085 299.284 222.009 320.16 222.009Z" stroke="white" stroke-miterlimit="10"/>
<path d="M235.74 182.259C235.74 182.259 263.22 160.349 282.36 184.259" stroke="white" stroke-miterlimit="10"/>
<path d="M347.8 114.159C348.608 106.692 349.032 99.1891 349.07 91.679C349.19 80.519 349.23 68.539 346 57.769C341.05 41.309 327.5 35.359 311.5 33.569C296.22 31.859 280.64 34.179 265.89 38.179C255.783 40.9668 245.893 44.4895 236.3 48.719C193.3 67.419 157.82 66.479 154.25 54.199C150.67 72.829 160.32 81.199 171.76 82.669C153.5 81.999 147.5 70.869 147.5 70.869C147.5 70.869 144.28 108.069 176.8 106.799C209.32 105.529 290.08 76.589 309.02 89.799C327.96 103.009 327.72 123.069 347.8 114.159Z" fill="#FCCB6A"/>
<path d="M347.64 89.069C346.92 88.729 353.47 61.479 360.5 61.479C367.53 61.479 354.07 82.169 354.07 82.169C354.07 82.169 364.07 69.439 369.4 72.619C374.73 75.799 356.13 93.049 347.64 89.069Z" fill="#FCCB6A"/>
<path d="M299.21 169.389C300.747 167.263 302.743 165.51 305.05 164.259C307.388 162.965 310.029 162.32 312.7 162.389C315.361 162.501 317.957 163.248 320.27 164.569C321.409 165.211 322.499 165.936 323.53 166.739L325 167.999C325.47 168.449 325.92 168.909 326.37 169.369C324.38 167.754 322.217 166.365 319.92 165.229C317.659 164.112 315.19 163.479 312.67 163.369C310.151 163.323 307.658 163.882 305.4 164.999C304.245 165.529 303.149 166.179 302.13 166.939C301.082 167.663 300.105 168.483 299.21 169.389Z" fill="#FCCB6A"/>
<path d="M202.12 169.389C203.657 167.263 205.653 165.51 207.96 164.259C210.301 162.964 212.945 162.318 215.62 162.389C218.278 162.501 220.87 163.248 223.18 164.569C224.319 165.211 225.409 165.936 226.44 166.739L227.91 168.019C228.38 168.469 228.84 168.929 229.29 169.389C227.297 167.773 225.13 166.385 222.83 165.249C220.572 164.132 218.106 163.498 215.59 163.389C213.074 163.321 210.577 163.856 208.31 164.949C207.155 165.479 206.059 166.129 205.04 166.889C203.992 167.631 203.015 168.468 202.12 169.389Z" fill="#FCCB6A"/>
</svg>
