<svg width="513" height="513" viewBox="0 0 513 513" fill="none" xmlns="http://www.w3.org/2000/svg">
<path d="M512.5 0.5H0.5V512.5H512.5V0.5Z" fill="#E7F1FA"/>
<path d="M92.5701 512.995C92.5701 512.995 124.82 354.765 263.57 354.765C402.32 354.765 420.43 512.995 420.43 512.995H92.5701Z" fill="#F48369"/>
<path d="M230.27 357.995C230.27 357.995 200.61 388.555 225.27 410.575C248.66 431.405 263.27 399.865 263.27 399.865C263.27 399.865 263.2 419.495 286.4 417.935C309.6 416.375 321.69 388.215 312.4 362.265C280.23 345.265 230.27 357.995 230.27 357.995Z" fill="white"/>
<path d="M162.9 240.975C177.121 240.975 188.65 229.446 188.65 215.225C188.65 201.003 177.121 189.475 162.9 189.475C148.679 189.475 137.15 201.003 137.15 215.225C137.15 229.446 148.679 240.975 162.9 240.975Z" fill="#E58383"/>
<path d="M354.06 240.975C368.281 240.975 379.81 229.446 379.81 215.225C379.81 201.003 368.281 189.475 354.06 189.475C339.839 189.475 328.31 201.003 328.31 215.225C328.31 229.446 339.839 240.975 354.06 240.975Z" fill="#E58383"/>
<path d="M291.72 308.685L287.37 251.495L242.72 257.625L235.42 341.225C250.16 339.455 274.16 332.685 291.72 308.685Z" fill="#E59783"/>
<path d="M170.12 190.725C169.28 204.405 169.89 208.515 171.4 222.155C174.4 249.155 187.31 272.685 211.82 285.755C236.33 298.825 269.89 303.515 296.06 292.755C316.33 284.415 331.98 269.535 340 249.485C349.14 226.645 349.24 197.425 348 172.765C343.43 81.3846 269 82.7646 269 82.7646C269 82.7646 169.74 75.0746 170.12 190.725Z" fill="#F4B6A4"/>
<path d="M235.42 341.225L232.21 377.995C232.21 377.995 233.53 396.385 263.29 399.885C293.05 403.385 296.57 372.305 296.57 372.305L291.72 308.665C274.16 332.685 250.16 339.455 235.42 341.225Z" fill="#F4B6A4"/>
<path d="M222.8 209.105C222.8 214.105 220.8 218.245 218.23 218.245C215.66 218.245 213.66 214.155 213.66 209.105C213.66 204.055 215.71 199.965 218.23 199.965C220.75 199.965 222.8 204.055 222.8 209.105Z" fill="#323B44"/>
<path d="M302.81 219.795C305.334 219.795 307.38 215.702 307.38 210.655C307.38 205.607 305.334 201.515 302.81 201.515C300.286 201.515 298.24 205.607 298.24 210.655C298.24 215.702 300.286 219.795 302.81 219.795Z" fill="#323B44"/>
<path d="M259.89 215.225C257.946 216.038 256.058 216.98 254.24 218.045C253.347 218.566 252.503 219.169 251.72 219.845C250.942 220.432 250.402 221.281 250.2 222.235C250.206 222.705 250.33 223.167 250.561 223.578C250.792 223.988 251.121 224.334 251.52 224.585C252.269 225.258 253.167 225.744 254.14 226.005C255.136 226.228 256.175 226.169 257.14 225.835C258.138 225.516 259.07 225.018 259.89 224.365C259.166 225.181 258.254 225.808 257.233 226.191C256.211 226.574 255.112 226.703 254.03 226.565C252.934 226.351 251.915 225.847 251.08 225.105C250.583 224.792 250.174 224.358 249.891 223.844C249.607 223.329 249.459 222.752 249.46 222.165C249.693 221.027 250.337 220.016 251.27 219.325C252.095 218.629 252.997 218.032 253.96 217.545C255.845 216.556 257.834 215.778 259.89 215.225Z" fill="#323B44"/>
<path d="M247.19 236.655C248.086 237.452 249.039 238.184 250.04 238.845C251.026 239.52 252.062 240.118 253.14 240.635C255.247 241.713 257.557 242.336 259.92 242.465C261.09 242.521 262.263 242.427 263.41 242.185C264.555 241.909 265.665 241.507 266.72 240.985C268.828 239.851 270.742 238.39 272.39 236.655C270.931 238.612 269.095 240.258 266.99 241.495C264.823 242.71 262.363 243.305 259.88 243.215C257.422 243.05 255.032 242.343 252.88 241.145C250.742 239.983 248.817 238.464 247.19 236.655Z" fill="#323B44"/>
<path d="M208.64 246.315C213.953 246.315 218.26 242.008 218.26 236.695C218.26 231.382 213.953 227.075 208.64 227.075C203.327 227.075 199.02 231.382 199.02 236.695C199.02 242.008 203.327 246.315 208.64 246.315Z" fill="#E58383"/>
<path d="M307.38 249.375C312.693 249.375 317 245.068 317 239.755C317 234.442 312.693 230.135 307.38 230.135C302.067 230.135 297.76 234.442 297.76 239.755C297.76 245.068 302.067 249.375 307.38 249.375Z" fill="#E58383"/>
<path d="M165.96 220.805C167.16 219.085 134.96 77.8846 262.86 77.4946C384.41 77.1246 350.86 203.605 350.86 203.605C350.86 203.605 298.53 171.285 291.68 119.935C292.04 122.615 287.47 128.545 286.07 130.765C283.806 134.278 281.285 137.621 278.53 140.765C267.239 153.986 253.871 165.28 238.95 174.205C231.131 178.889 222.864 182.778 214.27 185.815C205.07 188.985 195.47 190.815 186.67 195.165C176.2 200.285 169.6 209.915 165.96 220.805Z" fill="#323B44"/>
<path d="M289.88 92.4446C289.88 92.4446 270.88 47.2946 312.82 35.1146C354.76 22.9346 380.01 65.5646 329.93 106.775C315.33 91.3746 289.88 92.4446 289.88 92.4446Z" fill="#323B44"/>
<path d="M262.74 432.465C265.557 432.465 267.84 430.181 267.84 427.365C267.84 424.548 265.557 422.265 262.74 422.265C259.923 422.265 257.64 424.548 257.64 427.365C257.64 430.181 259.923 432.465 262.74 432.465Z" fill="white"/>
<path d="M262.74 461.905C265.557 461.905 267.84 459.621 267.84 456.805C267.84 453.988 265.557 451.705 262.74 451.705C259.923 451.705 257.64 453.988 257.64 456.805C257.64 459.621 259.923 461.905 262.74 461.905Z" fill="white"/>
</svg>
