<svg width="513" height="513" viewBox="0 0 513 513" fill="none" xmlns="http://www.w3.org/2000/svg">
<g clip-path="url(#clip0)">
<path d="M512.5 0.5H0.5V512.5H512.5V0.5Z" fill="#E7F1FA"/>
<path d="M85.9199 513.004C85.9199 513.004 119.5 348.354 263.86 348.354C408.22 348.354 427.08 513.004 427.08 513.004H85.9199Z" fill="#DE5252"/>
<path d="M156.25 343.684C156.25 343.684 285.25 320.024 353.25 342.354C371.5 295.424 409.13 68.5241 268.6 65.2841C117.4 61.8041 142.5 308.674 156.25 343.684Z" fill="#6E5B56"/>
<path d="M187.074 208.062C189.589 193.414 179.754 179.501 165.106 176.986C150.458 174.47 136.545 184.306 134.029 198.953C131.514 213.601 141.349 227.514 155.997 230.03C170.645 232.545 184.558 222.71 187.074 208.062Z" fill="#E58383"/>
<path d="M385.012 206.441C387.379 191.793 377.424 178 362.776 175.632C348.128 173.265 334.335 183.22 331.967 197.868C329.6 212.516 339.555 226.309 354.203 228.676C368.851 231.044 382.644 221.089 385.012 206.441Z" fill="#E58383"/>
<path d="M293.15 292.004L288.62 232.494L242.16 238.874L234.57 325.874C249.9 324.004 274.88 317.004 293.15 292.004Z" fill="#E59783"/>
<path d="M169.69 146.174C167.19 152.444 167.56 161.034 167.16 167.634C166.211 181.898 166.479 196.216 167.96 210.434C171.07 238.544 184.51 263.014 209.96 276.614C235.41 290.214 270.38 295.094 297.61 283.884C318.7 275.204 334.99 259.724 343.33 238.884C352.84 215.114 352.94 184.724 351.66 159.054C346.96 64.0041 269.5 65.3541 269.5 65.3541C269.5 65.3541 198.22 74.8641 169.69 146.174Z" fill="#F4B6A4"/>
<path d="M234.57 325.884L231.23 364.164C231.23 364.164 232.59 383.294 263.57 386.934C294.55 390.574 298.19 358.234 298.19 358.234L293.19 292.024C274.88 317.004 249.9 324.004 234.57 325.884Z" fill="#F4B6A4"/>
<path d="M212.5 198.474C212.5 203.724 210.37 207.974 207.75 207.974C205.13 207.974 202.99 203.724 202.99 198.474C202.99 193.224 205.12 188.964 207.75 188.964C210.38 188.964 212.5 193.224 212.5 198.474Z" fill="#323B44"/>
<path d="M314.69 202.294C314.69 207.544 312.57 211.804 309.94 211.804C307.31 211.804 305.19 207.544 305.19 202.294C305.19 197.044 307.31 192.784 309.94 192.784C312.57 192.784 314.69 197.004 314.69 202.294Z" fill="#323B44"/>
<path d="M260.02 203.224C257.999 204.07 256.035 205.046 254.14 206.144C253.209 206.688 252.326 207.311 251.5 208.004C250.687 208.619 250.122 209.507 249.91 210.504C249.921 210.996 250.052 211.477 250.293 211.906C250.533 212.335 250.876 212.699 251.29 212.964C252.07 213.667 253.006 214.174 254.02 214.444C255.059 214.679 256.144 214.617 257.15 214.264C258.188 213.934 259.155 213.412 260 212.724C259.245 213.568 258.296 214.217 257.236 214.614C256.175 215.011 255.034 215.145 253.91 215.004C252.775 214.778 251.72 214.257 250.85 213.494C250.334 213.168 249.909 212.716 249.615 212.181C249.322 211.645 249.168 211.045 249.17 210.434C249.248 209.823 249.486 209.244 249.86 208.754C250.207 208.289 250.606 207.867 251.05 207.494C251.906 206.77 252.842 206.146 253.84 205.634C255.808 204.611 257.879 203.803 260.02 203.224Z" fill="#323B44"/>
<path d="M246.81 225.524C247.756 226.356 248.758 227.121 249.81 227.814C250.833 228.516 251.91 229.138 253.03 229.674C255.221 230.803 257.628 231.454 260.09 231.584C261.307 231.643 262.527 231.545 263.72 231.294C264.911 231.002 266.068 230.583 267.17 230.044C269.364 228.864 271.353 227.338 273.06 225.524C271.538 227.549 269.628 229.249 267.44 230.524C265.189 231.791 262.631 232.411 260.05 232.314C257.49 232.149 254.999 231.415 252.76 230.164C250.526 228.968 248.514 227.399 246.81 225.524Z" fill="#323B44"/>
<path d="M159.11 160.004C159.11 160.004 262.95 150.334 264.71 91.5941C273.03 141.184 317.5 147.004 363.25 157.114C363.25 157.114 348.78 57.1741 258.75 65.2041C239.66 66.9141 223.02 78.0341 208.75 89.2741C176.61 114.714 162.4 152.414 159.11 160.004Z" fill="#6E5B56"/>
<path d="M271.14 69.4841C271.14 69.4841 277.21 34.9441 268.81 33.0741C260.41 31.2041 264.71 65.3541 264.71 65.3541C264.71 65.3541 262.02 44.2741 249.5 44.7441C236.98 45.2141 261.81 69.0041 271.14 69.4841Z" fill="#6E5B56"/>
<path d="M201.92 241.994C207.448 241.994 211.93 237.512 211.93 231.984C211.93 226.456 207.448 221.974 201.92 221.974C196.392 221.974 191.91 226.456 191.91 231.984C191.91 237.512 196.392 241.994 201.92 241.994Z" fill="#E58383"/>
<path d="M314.69 241.994C320.218 241.994 324.7 237.512 324.7 231.984C324.7 226.456 320.218 221.974 314.69 221.974C309.162 221.974 304.68 226.456 304.68 231.984C304.68 237.512 309.162 241.994 314.69 241.994Z" fill="#E58383"/>
<path d="M198.22 239.194C218.599 239.194 235.12 222.673 235.12 202.294C235.12 181.915 218.599 165.394 198.22 165.394C177.841 165.394 161.32 181.915 161.32 202.294C161.32 222.673 177.841 239.194 198.22 239.194Z" stroke="white" stroke-miterlimit="10"/>
<path d="M316.97 239.194C337.349 239.194 353.87 222.673 353.87 202.294C353.87 181.915 337.349 165.394 316.97 165.394C296.591 165.394 280.07 181.915 280.07 202.294C280.07 222.673 296.591 239.194 316.97 239.194Z" stroke="white" stroke-miterlimit="10"/>
<path d="M234.57 200.384C234.57 200.384 261.4 179.004 280.07 202.294" stroke="white" stroke-miterlimit="10"/>
<path d="M297.81 177.904C299.853 175.44 302.314 173.355 305.08 171.744C307.854 170.07 310.953 169.006 314.17 168.624C315.785 168.472 317.412 168.506 319.02 168.724C320.618 168.975 322.182 169.411 323.68 170.024C325.158 170.651 326.572 171.422 327.9 172.324C328.57 172.754 329.17 173.324 329.81 173.764C330.45 174.204 330.99 174.824 331.58 175.364C329.101 173.421 326.343 171.864 323.4 170.744C320.479 169.691 317.359 169.309 314.27 169.624C311.18 169.987 308.187 170.934 305.45 172.414C304.057 173.14 302.72 173.969 301.45 174.894C300.168 175.811 298.951 176.817 297.81 177.904Z" fill="#6E5B56"/>
<path d="M218.14 177.674C215.894 175.229 213.171 173.269 210.14 171.914C207.139 170.579 203.904 169.848 200.62 169.764L198.17 169.844H197.55L196.95 169.944L195.73 170.134C194.103 170.387 192.495 170.754 190.92 171.234L190.32 171.394L189.74 171.614L188.58 172.064L186.26 172.974C184.77 173.684 183.26 174.454 181.77 175.164C183.17 174.264 184.61 173.404 186.05 172.524L188.35 171.524L189.5 171.004L190.07 170.744L190.68 170.544C192.269 169.966 193.905 169.528 195.57 169.234L196.83 169.024L197.46 168.914H198.09L200.64 168.814C204.058 168.897 207.416 169.737 210.47 171.274C211.976 172.044 213.397 172.969 214.71 174.034C215.999 175.101 217.151 176.324 218.14 177.674Z" fill="#6E5B56"/>
</g>
<defs>
<clipPath id="clip0">
<rect width="513" height="513" fill="white"/>
</clipPath>
</defs>
</svg>
