<svg width="513" height="513" viewBox="0 0 513 513" fill="none" xmlns="http://www.w3.org/2000/svg">
<path d="M512.5 0.5H0.5V512.5H512.5V0.5Z" fill="#E7F1FA"/>
<path d="M187.95 118.355L154.78 109.655C154.78 109.655 134.78 171.655 162.62 192.915C190.46 214.175 187.95 118.355 187.95 118.355Z" fill="#6E5B56"/>
<path d="M78.3501 512.965C78.3501 512.965 113.4 340.965 264.19 340.965C414.98 340.965 434.65 512.965 434.65 512.965H78.3501Z" fill="#323B44"/>
<path d="M165.44 215.231C179.728 209.345 186.539 192.99 180.653 178.702C174.766 164.414 158.412 157.603 144.124 163.49C129.836 169.376 123.025 185.73 128.911 200.018C134.797 214.306 151.152 221.117 165.44 215.231Z" fill="#E58383"/>
<path d="M382.304 209.155C393.231 198.228 393.231 180.512 382.304 169.585C371.377 158.658 353.661 158.658 342.734 169.585C331.807 180.512 331.807 198.228 342.734 209.155C353.661 220.082 371.377 220.082 382.304 209.155Z" fill="#E58383"/>
<path d="M294.78 290.965L290.05 228.825L241.5 235.455L233.58 326.295C249.61 324.375 275.69 317.025 294.78 290.965Z" fill="#E59783"/>
<path d="M179.74 122.525C191.87 134.715 177.74 164.595 162.62 162.745C161.72 177.625 162.38 182.085 164.03 196.905C167.28 226.255 181.31 251.815 207.95 266.015C234.59 280.215 271.05 285.325 299.49 273.615C321.49 264.555 338.49 248.385 347.24 226.615C357.17 201.794 357.24 170.045 355.94 143.235C350.94 43.9345 270.11 45.4045 270.11 45.4045C270.11 45.4045 209.5 48.0445 179.74 122.525Z" fill="#F4B6A4"/>
<path d="M233.6 326.294L230.11 366.294C230.11 366.294 231.53 386.294 263.88 390.074C296.23 393.854 300.04 360.074 300.04 360.074L294.78 290.965C275.69 317.025 249.61 324.374 233.6 326.294Z" fill="#F4B6A4"/>
<path d="M214.91 192.654C217.655 192.654 219.88 188.209 219.88 182.724C219.88 177.24 217.655 172.794 214.91 172.794C212.165 172.794 209.94 177.24 209.94 182.724C209.94 188.209 212.165 192.654 214.91 192.654Z" fill="#323B44"/>
<path d="M311.79 184.404C311.79 189.894 309.57 194.334 306.79 194.334C304.01 194.334 301.79 189.894 301.79 184.404C301.79 178.914 304.01 174.474 306.79 174.474C309.57 174.474 311.79 178.964 311.79 184.404Z" fill="#323B44"/>
<path d="M260.18 189.375C258.067 190.24 256.013 191.242 254.03 192.375C253.056 192.959 252.136 193.628 251.28 194.375C250.432 195.022 249.843 195.951 249.62 196.995C249.627 197.513 249.763 198.021 250.016 198.474C250.269 198.926 250.632 199.308 251.07 199.585C251.886 200.318 252.867 200.843 253.93 201.115C255.016 201.362 256.15 201.296 257.2 200.925C258.291 200.577 259.308 200.031 260.2 199.315C259.413 200.197 258.422 200.874 257.314 201.287C256.205 201.7 255.013 201.837 253.84 201.685C252.656 201.448 251.556 200.903 250.65 200.105C250.162 199.735 249.736 199.29 249.39 198.785C249.027 198.235 248.855 197.581 248.9 196.925C248.98 196.291 249.229 195.69 249.62 195.185C249.975 194.696 250.388 194.253 250.85 193.865C251.748 193.11 252.727 192.459 253.77 191.925C255.809 190.846 257.958 189.991 260.18 189.375Z" fill="#323B44"/>
<path d="M246.38 212.664C247.354 213.531 248.386 214.33 249.47 215.054C250.541 215.785 251.664 216.436 252.83 217.004C255.12 218.188 257.636 218.869 260.21 219.004C261.488 219.072 262.769 218.968 264.02 218.694C265.267 218.4 266.475 217.961 267.62 217.384C269.911 216.158 271.986 214.564 273.76 212.664C272.171 214.781 270.175 216.559 267.89 217.894C265.543 219.219 262.873 219.863 260.18 219.754C257.508 219.583 254.908 218.818 252.57 217.514C250.246 216.262 248.152 214.621 246.38 212.664Z" fill="#323B44"/>
<path d="M209.95 226.485C215.721 226.485 220.4 221.806 220.4 216.035C220.4 210.263 215.721 205.585 209.95 205.585C204.179 205.585 199.5 210.263 199.5 216.035C199.5 221.806 204.179 226.485 209.95 226.485Z" fill="#E58383"/>
<path d="M306.83 226.485C312.601 226.485 317.28 221.806 317.28 216.035C317.28 210.263 312.601 205.585 306.83 205.585C301.058 205.585 296.38 210.263 296.38 216.035C296.38 221.806 301.058 226.485 306.83 226.485Z" fill="#E58383"/>
<path d="M341.86 143.435C339.17 135.505 338.13 127.095 335.76 119.065C333.39 111.035 329.36 103.065 322.36 98.4145C315.36 93.7645 306.3 93.2645 297.96 94.4145C275.67 97.5745 256.45 111.335 235.21 118.835C211.567 127.106 185.883 127.513 161.99 119.995C153.69 117.355 145.59 113.705 138.99 108.075C125.5 96.6645 119.5 77.0445 124.41 60.0445C125.29 56.9645 126.56 53.8845 128.9 51.6945C131.24 49.5045 134.9 48.4545 137.73 49.8545C142.35 52.1045 142.6 58.0845 143.4 62.4845C144.47 68.3245 146.19 76.5745 150.28 81.0145C153.43 75.8045 151.64 67.3545 152.28 61.4545C153.02 54.6345 155.28 47.4545 160.8 43.3645C161.986 42.3342 163.52 41.7942 165.09 41.8545C169.09 42.3545 169.57 47.8545 169.38 51.9345C169.064 59.1421 170.206 66.3394 172.74 73.0945C172.34 60.7045 172.26 47.2545 179.63 37.2845C181.33 34.9845 183.92 32.7845 186.71 33.3645C189.88 34.0345 191.24 37.8545 191.27 41.0945C191.3 44.3345 190.59 47.7545 191.94 50.7045C193.5 54.1145 197.5 55.8745 201.23 55.9645C204.96 56.0545 208.59 54.6545 212.11 53.3645C238.71 43.6345 266.29 36.1045 294.5 33.5645C305.36 32.5645 316.74 32.4445 326.63 37.0445C335.42 41.1245 342.26 48.6945 346.88 57.2245C351.5 65.7545 354.06 75.2245 356 84.7245C359.682 102.815 361.242 121.273 360.65 139.725C360.49 144.565 362.02 159.165 354.44 158.805C348.17 158.425 343.5 148.335 341.86 143.435Z" fill="#6E5B56"/>
<path d="M418.38 453.195H99.96L102.95 447.305H415.92L418.38 453.195Z" fill="#5867B0"/>
<path d="M430.1 489.584H84.9902L87.0302 483.704H428.58L430.1 489.584Z" fill="#5867B0"/>
<path d="M292 162.964C294.135 160.394 296.704 158.218 299.59 156.534C302.489 154.796 305.723 153.692 309.08 153.294C310.768 153.128 312.47 153.161 314.15 153.394C315.818 153.648 317.45 154.101 319.01 154.744C320.553 155.398 322.03 156.198 323.42 157.134C324.12 157.584 324.75 158.134 325.42 158.634C326.09 159.134 326.66 159.744 327.27 160.294C324.686 158.265 321.81 156.636 318.74 155.464C315.689 154.358 312.428 153.955 309.2 154.284C305.971 154.67 302.843 155.661 299.98 157.204C297.063 158.751 294.372 160.689 291.98 162.964H292Z" fill="#323B44"/>
<path d="M230.87 160.475C229.921 158.966 228.762 157.599 227.43 156.415C226.132 155.22 224.674 154.21 223.1 153.415C219.944 151.859 216.445 151.13 212.93 151.295C209.399 151.472 205.915 152.187 202.6 153.415C200.93 154.015 199.29 154.705 197.67 155.465C196.87 155.855 196.05 156.215 195.26 156.625C194.47 157.035 193.68 157.465 192.88 157.875C195.831 155.807 199 154.07 202.33 152.695C205.687 151.286 209.264 150.474 212.9 150.295C216.592 150.116 220.261 150.964 223.5 152.745C226.68 154.519 229.249 157.213 230.87 160.475Z" fill="#323B44"/>
</svg>
