<svg width="800" height="524" viewBox="0 0 800 524" fill="none" xmlns="http://www.w3.org/2000/svg">
<g clip-path="url(#clip0)">
<path d="M778.341 522.814L779.528 522.79C779.069 509.6 777.661 496.459 775.316 483.47C770.186 455.661 761.656 437.398 749.962 429.187L749.281 430.158C776.598 449.338 778.327 522.081 778.341 522.814Z" fill="#F1F1F1"/>
<path d="M763.512 522.53L764.698 522.507C764.672 521.193 763.931 490.229 751.741 481.671L751.06 482.642C762.758 490.855 763.506 522.214 763.512 522.53Z" fill="#F1F1F1"/>
<path d="M742.531 430.266C745.807 430.266 748.463 427.61 748.463 424.334C748.463 421.058 745.807 418.402 742.531 418.402C739.255 418.402 736.6 421.058 736.6 424.334C736.6 427.61 739.255 430.266 742.531 430.266Z" fill="#F1F1F1"/>
<path d="M745.469 481.279C748.745 481.279 751.401 478.624 751.401 475.347C751.401 472.071 748.745 469.416 745.469 469.416C742.193 469.416 739.537 472.071 739.537 475.347C739.537 478.624 742.193 481.279 745.469 481.279Z" fill="#F1F1F1"/>
<path d="M766.277 433.821C765.682 438.397 766.3 443.049 768.067 447.311C771.155 443.86 773.179 439.589 773.895 435.014C774.611 430.439 773.99 425.755 772.104 421.525C769.119 425.043 767.109 429.283 766.277 433.821Z" fill="#F1F1F1"/>
<path d="M746.887 451.115C751.289 452.498 755.977 452.7 760.482 451.702C757.622 448.06 753.769 445.323 749.389 443.821C745.009 442.318 740.288 442.115 735.794 443.234C738.738 446.787 742.563 449.505 746.887 451.115V451.115Z" fill="#F1F1F1"/>
<path d="M746.668 496.292C749.754 497.262 753.04 497.403 756.197 496.704C754.192 494.151 751.492 492.233 748.422 491.18C745.352 490.127 742.042 489.984 738.893 490.768C740.956 493.259 743.637 495.164 746.668 496.292V496.292Z" fill="#F1F1F1"/>
<path d="M273.149 522.814L271.427 522.78C272.093 503.634 274.135 484.561 277.539 465.708C284.985 425.344 297.367 398.835 314.34 386.918L315.329 388.327C275.679 416.166 273.169 521.75 273.149 522.814Z" fill="#F1F1F1"/>
<path d="M294.673 522.402L292.951 522.368C292.988 520.461 294.064 475.518 311.757 463.096L312.746 464.506C295.767 476.427 294.682 521.944 294.673 522.402Z" fill="#F1F1F1"/>
<path d="M325.125 388.483C329.881 388.483 333.735 384.629 333.735 379.874C333.735 375.118 329.881 371.264 325.125 371.264C320.37 371.264 316.516 375.118 316.516 379.874C316.516 384.629 320.37 388.483 325.125 388.483Z" fill="#F1F1F1"/>
<path d="M320.862 462.528C325.617 462.528 329.472 458.673 329.472 453.918C329.472 449.163 325.617 445.308 320.862 445.308C316.107 445.308 312.252 449.163 312.252 453.918C312.252 458.673 316.107 462.528 320.862 462.528Z" fill="#F1F1F1"/>
<path d="M290.66 393.645C291.523 400.286 290.627 407.038 288.061 413.224C283.579 408.215 280.641 402.016 279.602 395.376C278.562 388.735 279.465 381.936 282.201 375.797C286.535 380.903 289.452 387.057 290.66 393.645V393.645Z" fill="#F1F1F1"/>
<path d="M318.803 418.745C312.414 420.752 305.609 421.046 299.07 419.597C303.222 414.312 308.814 410.339 315.172 408.158C321.529 405.977 328.382 405.682 334.904 407.306C330.631 412.463 325.079 416.408 318.803 418.745Z" fill="#F1F1F1"/>
<path d="M319.121 484.319C314.642 485.726 309.873 485.932 305.29 484.916C308.2 481.211 312.119 478.427 316.576 476.898C321.032 475.37 325.835 475.162 330.407 476.301C327.412 479.916 323.52 482.681 319.121 484.319Z" fill="#F1F1F1"/>
<path d="M799.031 523.971H0.968523C0.711655 523.971 0.465306 523.869 0.283673 523.687C0.10204 523.506 0 523.259 0 523.002C0 522.746 0.10204 522.499 0.283673 522.318C0.465306 522.136 0.711655 522.034 0.968523 522.034H799.031C799.288 522.034 799.535 522.136 799.716 522.318C799.898 522.499 800 522.746 800 523.002C800 523.259 799.898 523.506 799.716 523.687C799.535 523.869 799.288 523.971 799.031 523.971Z" fill="#CBCBCB"/>
<path d="M140.146 156.159L136.003 130.814L124.306 127.89C124.306 127.89 115.022 125.03 112.852 143.73C110.683 162.43 112.365 197.344 112.365 197.344L86.6826 278.671C84.7106 279.609 83.0504 281.094 81.9009 282.951C80.7513 284.807 80.1611 286.955 80.2009 289.138C80.2406 291.321 80.9087 293.446 82.125 295.26C83.3414 297.073 85.0546 298.497 87.0594 299.362C89.0643 300.226 91.2758 300.495 93.4294 300.136C95.583 299.776 97.5873 298.803 99.2024 297.334C100.817 295.865 101.975 293.961 102.536 291.851C103.097 289.741 103.039 287.514 102.367 285.437L135.76 209.042L140.146 156.159Z" fill="#FFB7B7"/>
<path d="M211.278 136.214L205.137 111.278L214.746 103.996C214.746 103.996 222.162 97.7209 231.5 114.067C240.838 130.413 252.999 163.184 252.999 163.184L308.551 227.896C310.733 227.984 312.843 228.698 314.629 229.954C316.415 231.21 317.801 232.954 318.622 234.977C319.442 237.001 319.663 239.218 319.256 241.363C318.849 243.508 317.833 245.49 316.328 247.073C314.824 248.655 312.896 249.771 310.774 250.286C308.652 250.8 306.427 250.693 304.364 249.976C302.302 249.259 300.49 247.962 299.146 246.242C297.801 244.522 296.981 242.451 296.783 240.276L236.076 183.128L211.278 136.214Z" fill="#FFB7B7"/>
<path d="M259.284 509.533L273.215 509.532L279.842 455.801L259.282 455.801L259.284 509.533Z" fill="#FFB7B7"/>
<path d="M255.731 504.985L283.165 504.984H283.166C287.803 504.984 292.25 506.826 295.528 510.105C298.807 513.383 300.649 517.83 300.649 522.467V523.035L255.732 523.036L255.731 504.985Z" fill="#243443"/>
<path d="M84.2984 509.533L98.2287 509.532L104.856 455.801L84.2955 455.801L84.2984 509.533Z" fill="#FFB7B7"/>
<path d="M80.7449 504.985L108.179 504.984H108.18C112.817 504.984 117.264 506.826 120.542 510.105C123.821 513.383 125.663 517.83 125.663 522.467V523.035L80.7457 523.036L80.7449 504.985Z" fill="#243443"/>
<path d="M169.736 88.458C190.544 88.458 207.413 71.5893 207.413 50.7808C207.413 29.9722 190.544 13.1035 169.736 13.1035C148.927 13.1035 132.059 29.9722 132.059 50.7808C132.059 71.5893 148.927 88.458 169.736 88.458Z" fill="#243443"/>
<path d="M140.327 30.4661C146.415 24.3776 147.649 15.7402 143.083 11.1738C138.516 6.60741 129.879 7.84132 123.79 13.9298C117.702 20.0183 116.468 28.6558 121.034 33.2222C125.601 37.7886 134.238 36.5546 140.327 30.4661Z" fill="#243443"/>
<path d="M209.006 18.5013C211.542 12.5626 207.18 5.00632 199.262 1.62391C191.343 -1.75849 182.868 0.313804 180.331 6.25251C177.794 12.1912 182.157 19.7475 190.075 23.1299C197.993 26.5123 206.469 24.44 209.006 18.5013Z" fill="#243443"/>
<path d="M198.988 75.113C207.459 59.6171 201.764 40.1883 186.268 31.7175C170.773 23.2467 151.344 28.9416 142.873 44.4375C134.402 59.9334 140.097 79.3622 155.593 87.833C171.089 96.3038 190.518 90.6088 198.988 75.113Z" fill="#FFB7B7"/>
<path d="M137.331 39.6621C144.638 44.6984 153.311 47.3787 162.185 47.3432C159.02 49.5382 155.416 51.0208 151.622 51.689C163.422 54.22 175.616 54.2885 187.443 51.8902C190.072 51.4687 192.609 50.5975 194.942 49.3148C196.104 48.6655 197.117 47.7787 197.915 46.7122C198.712 45.6458 199.276 44.4234 199.57 43.1245C200.356 38.6349 196.858 34.5559 193.222 31.8069C187.656 27.6623 181.238 24.8067 174.432 23.4468C167.627 22.0868 160.604 22.2566 153.873 23.9438C149.477 25.08 145.074 26.9997 142.219 30.5298C139.364 34.0598 138.518 39.5019 141.238 43.1369L137.331 39.6621Z" fill="#243443"/>
<path d="M154.905 101.357L123.256 127.204L150.909 193.14L151.437 203.69C151.437 203.69 122.73 230.158 104.968 304.095C87.2061 378.032 51.3317 476.277 51.3317 476.277L123.1 493.834L172.999 326.58L236.608 457.796L245.657 496.606L301.134 481.206L279.724 377.054L227.21 215.386L231.522 170.723C231.522 170.723 241.132 148.43 224.438 124.828L219.202 102.651L192.096 98.0308L154.905 101.357Z" fill="#243443"/>
<path d="M687.084 336.009H467.354C465.599 336.007 463.917 335.309 462.676 334.068C461.436 332.827 460.738 331.145 460.736 329.391V255.265C460.738 253.51 461.436 251.828 462.676 250.587C463.917 249.346 465.599 248.648 467.354 248.646H687.084C688.839 248.648 690.521 249.346 691.762 250.587C693.003 251.828 693.701 253.51 693.703 255.265V329.391C693.701 331.145 693.003 332.827 691.762 334.068C690.521 335.309 688.839 336.007 687.084 336.009V336.009Z" fill="#E5E5E5"/>
<path d="M553.393 268.501H495.151V275.12H553.393V268.501Z" fill="white"/>
<path d="M630.166 276.444C632.359 276.444 634.137 274.666 634.137 272.472C634.137 270.279 632.359 268.501 630.166 268.501C627.973 268.501 626.195 270.279 626.195 272.472C626.195 274.666 627.973 276.444 630.166 276.444Z" fill="#377DFF"/>
<path d="M643.403 276.444C645.596 276.444 647.374 274.666 647.374 272.472C647.374 270.279 645.596 268.501 643.403 268.501C641.21 268.501 639.432 270.279 639.432 272.472C639.432 274.666 641.21 276.444 643.403 276.444Z" fill="#377DFF"/>
<path d="M656.64 276.444C658.833 276.444 660.611 274.666 660.611 272.472C660.611 270.279 658.833 268.501 656.64 268.501C654.447 268.501 652.669 270.279 652.669 272.472C652.669 274.666 654.447 276.444 656.64 276.444Z" fill="#377DFF"/>
<path d="M687.084 429.99H467.354C465.599 429.988 463.917 429.29 462.676 428.049C461.436 426.809 460.738 425.126 460.736 423.372V349.246C460.738 347.491 461.436 345.809 462.676 344.568C463.917 343.327 465.599 342.629 467.354 342.627H687.084C688.839 342.629 690.521 343.327 691.762 344.568C693.003 345.809 693.701 347.491 693.703 349.246V423.372C693.701 425.126 693.003 426.809 691.762 428.049C690.521 429.29 688.839 429.988 687.084 429.99V429.99Z" fill="#E5E5E5"/>
<path d="M553.393 362.483H495.151V369.101H553.393V362.483Z" fill="white"/>
<path d="M630.166 370.425C632.359 370.425 634.137 368.647 634.137 366.454C634.137 364.26 632.359 362.483 630.166 362.483C627.973 362.483 626.195 364.26 626.195 366.454C626.195 368.647 627.973 370.425 630.166 370.425Z" fill="#377DFF"/>
<path d="M643.403 370.425C645.596 370.425 647.374 368.647 647.374 366.454C647.374 364.26 645.596 362.483 643.403 362.483C641.21 362.483 639.432 364.26 639.432 366.454C639.432 368.647 641.21 370.425 643.403 370.425Z" fill="#377DFF"/>
<path d="M656.64 370.425C658.833 370.425 660.611 368.647 660.611 366.454C660.611 364.26 658.833 362.483 656.64 362.483C654.447 362.483 652.669 364.26 652.669 366.454C652.669 368.647 654.447 370.425 656.64 370.425Z" fill="#377DFF"/>
<path d="M687.084 523.971H467.354C465.599 523.969 463.917 523.271 462.676 522.03C461.436 520.79 460.738 519.107 460.736 517.353V443.227C460.738 441.472 461.436 439.79 462.676 438.549C463.917 437.308 465.599 436.61 467.354 436.608H687.084C688.839 436.61 690.521 437.308 691.762 438.549C693.003 439.79 693.701 441.472 693.703 443.227V517.353C693.701 519.107 693.003 520.79 691.762 522.03C690.521 523.271 688.839 523.969 687.084 523.971Z" fill="#E5E5E5"/>
<path d="M553.393 456.464H495.151V463.082H553.393V456.464Z" fill="white"/>
<path d="M630.166 464.406C632.359 464.406 634.137 462.628 634.137 460.435C634.137 458.241 632.359 456.464 630.166 456.464C627.973 456.464 626.195 458.241 626.195 460.435C626.195 462.628 627.973 464.406 630.166 464.406Z" fill="#377DFF"/>
<path d="M643.403 464.406C645.596 464.406 647.374 462.628 647.374 460.435C647.374 458.241 645.596 456.464 643.403 456.464C641.21 456.464 639.432 458.241 639.432 460.435C639.432 462.628 641.21 464.406 643.403 464.406Z" fill="#377DFF"/>
<path d="M656.64 464.406C658.833 464.406 660.611 462.628 660.611 460.435C660.611 458.241 658.833 456.464 656.64 456.464C654.447 456.464 652.669 458.241 652.669 460.435C652.669 462.628 654.447 464.406 656.64 464.406Z" fill="#377DFF"/>
<path d="M423.409 364.141C419.224 364.127 415.057 363.588 411.006 362.536L410.208 362.315L409.467 361.944C382.69 348.519 360.099 330.785 342.323 309.237C327.608 291.294 316.135 270.923 308.421 249.037C299.196 222.836 294.758 195.189 295.319 167.416C295.33 166.833 295.34 166.383 295.34 166.073C295.34 152.572 302.834 140.727 314.431 135.894C323.307 132.196 403.898 99.0941 409.721 96.7024C420.687 91.2077 432.386 95.7939 434.258 96.5959C438.457 98.3128 512.959 128.785 529.059 136.451C545.651 144.352 550.078 158.546 550.078 165.687C550.078 198.018 544.479 228.234 533.435 255.495C524.517 277.561 511.876 297.933 496.065 315.721C465.558 350.052 435.044 362.223 434.749 362.33C431.102 363.585 427.265 364.197 423.409 364.141V364.141ZM416.233 346.365C418.878 346.958 424.969 347.848 428.939 346.4C433.982 344.561 459.523 331.316 483.389 304.458C516.365 267.349 533.097 220.7 533.121 165.807C533.062 164.695 532.272 156.763 521.768 151.761C505.981 144.243 428.543 112.579 427.763 112.26L427.549 112.169C425.926 111.489 420.761 110.056 417.201 111.922L416.488 112.254C415.625 112.609 330.077 147.745 320.953 151.547C314.571 154.206 312.297 160.794 312.297 166.073C312.297 166.459 312.287 167.02 312.273 167.745C311.543 205.305 320.235 297.729 416.233 346.365Z" fill="#243443"/>
<path d="M413.267 104.412C413.267 104.412 326.941 139.867 317.692 143.721C308.443 147.574 303.818 156.824 303.818 166.073C303.818 175.322 296.881 296.012 413.267 354.365C413.267 354.365 423.83 357.287 431.844 354.365C439.858 351.442 541.6 302.113 541.6 165.687C541.6 165.687 541.6 151.814 525.413 144.106C509.227 136.398 430.97 104.412 430.97 104.412C430.97 104.412 421.36 100.172 413.267 104.412Z" fill="#377DFF"/>
<path opacity="0.2" d="M422.516 132.159V321.3C422.516 321.3 509.613 279.375 508.842 169.156L422.516 132.159Z" fill="black"/>
</g>
<defs>
<clipPath id="clip0">
<rect width="800" height="523.971" fill="white"/>
</clipPath>
</defs>
</svg>
