<svg width="800" height="646" viewBox="0 0 800 646" fill="none" xmlns="http://www.w3.org/2000/svg">
<g clip-path="url(#clip0)">
<path d="M526.399 361.67C509.523 371.791 479.455 384.473 448.729 371.44L428.867 363.015L468.669 318.397C436.907 283.377 419.335 237.777 419.384 190.499C419.432 143.22 437.097 97.6566 468.931 62.7012C500.764 27.7459 544.481 5.90768 591.549 1.44926C638.616 -3.00916 685.656 10.2322 723.487 38.5887C761.318 66.9452 787.223 108.382 796.148 154.81C805.073 201.238 796.376 249.326 771.754 289.688C747.133 330.049 708.354 359.787 662.988 373.096C617.622 386.406 568.924 382.332 526.399 361.67V361.67ZM450.138 190.392C450.05 212.186 454.473 233.763 463.129 253.765C471.785 273.767 484.486 291.761 500.433 306.617L511.412 316.934L486.366 345.01C499.412 342.363 510.775 335.305 516.536 331.206L524.442 325.581L532.945 330.253C556.448 343.121 582.813 349.865 609.608 349.862C697.54 349.862 769.078 278.324 769.078 190.392C769.078 102.46 697.54 30.9221 609.608 30.9221C521.676 30.9221 450.138 102.46 450.138 190.392V190.392Z" fill="#58616A"/>
<path d="M434.677 190.392C434.677 93.7803 512.996 15.4611 609.608 15.4611C706.22 15.4611 784.539 93.7803 784.539 190.392C784.539 287.004 706.22 365.323 609.608 365.323C580.205 365.366 551.269 357.963 525.5 343.804C513.407 352.408 483.908 369.569 454.766 357.207L489.845 317.884C472.407 301.546 458.512 281.798 449.022 259.867C439.532 237.936 434.649 214.288 434.677 190.392V190.392Z" fill="#377DFF"/>
<path opacity="0.1" d="M754.738 190.771C754.738 99.3708 684.637 24.3563 595.269 16.528C600.364 16.0817 605.518 15.8402 610.73 15.8402C707.341 15.8402 785.661 94.1594 785.661 190.771C785.661 287.383 707.341 365.702 610.73 365.702C605.526 365.702 600.381 365.458 595.293 365.012C684.649 357.172 754.738 282.163 754.738 190.771Z" fill="black"/>
<path d="M650.674 134.817C639.229 115.477 616.585 114.576 616.585 114.576C616.585 114.576 594.52 111.754 580.365 141.208C567.172 168.662 548.964 195.169 577.434 201.595L582.576 185.589L585.761 202.787C589.815 203.079 593.881 203.148 597.943 202.995C628.432 202.011 657.469 203.283 656.534 192.342C655.291 177.798 661.687 153.425 650.674 134.817Z" fill="#243443"/>
<path d="M575.808 304.18C575.472 306.307 574.984 308.407 574.348 310.465C573.632 312.479 572.526 314.341 571.871 316.376C569.784 322.862 572.678 330.093 577.3 335.1C581.308 339.424 586.481 342.496 592.196 343.945C596.403 344.845 600.695 345.296 604.997 345.29C616.896 345.694 629.1 346.055 640.374 342.231C643.936 340.993 647.377 339.43 650.652 337.562C651.686 337.069 652.597 336.352 653.319 335.462C654.074 334.159 654.41 332.655 654.281 331.154C654.256 326.11 653.234 321.092 653.476 316.054C653.611 313.263 654.133 310.475 653.876 307.693C653.52 304.533 652.197 301.561 650.086 299.182C647.976 296.804 645.183 295.136 642.088 294.406C638.89 293.719 635.572 294.094 632.316 294.407C623.864 295.219 615.376 295.598 606.885 295.544C598.21 295.488 589.588 294.164 580.956 294.026C578.403 293.985 578.455 294.772 577.642 297.242C576.893 299.516 576.281 301.833 575.808 304.18V304.18Z" fill="#243443"/>
<path d="M600.429 179.633C600.012 181.816 599.561 184.078 598.249 185.872C596.74 187.936 594.279 189.116 592.655 191.091C590.211 194.064 590.071 198.248 590.061 202.097C590.052 205.642 590.124 209.424 592.101 212.367C593.508 214.195 595.255 215.735 597.245 216.902C604.66 221.899 612.672 226.985 621.612 227.15C625.316 227.219 629.288 226.262 631.725 223.472C632.777 222.161 633.605 220.685 634.174 219.103C636.459 213.469 637.845 207.509 638.28 201.444C638.609 198.593 638.343 195.704 637.498 192.961C636.412 189.933 634.216 187.441 632.765 184.571C631.049 181.157 630.422 177.299 630.967 173.517C631.039 173.251 631.017 172.968 630.904 172.716C630.784 172.582 630.636 172.476 630.469 172.409C630.302 172.341 630.122 172.313 629.942 172.327L612.216 171.051C610.565 170.969 608.921 170.781 607.294 170.488C606.339 170.293 603.815 168.936 602.904 169.297C601.217 169.965 600.774 177.822 600.429 179.633Z" fill="#A0616A"/>
<path opacity="0.1" d="M600.429 180.186C600.012 182.369 599.561 184.632 598.249 186.426C596.74 188.49 594.279 189.669 592.655 191.644C590.211 194.617 590.071 198.801 590.061 202.65C590.052 206.195 590.124 209.977 592.101 212.92C593.508 214.748 595.255 216.288 597.245 217.455C604.66 222.452 612.672 227.539 621.612 227.704C625.316 227.772 629.288 226.815 631.725 224.025C632.777 222.715 633.605 221.238 634.174 219.657C636.459 214.022 637.845 208.063 638.28 201.997C638.609 199.146 638.343 196.257 637.498 193.514C636.412 190.486 634.216 187.995 632.765 185.124C631.049 181.71 630.422 177.852 630.967 174.071C631.039 173.804 631.017 173.521 630.904 173.27C630.785 173.135 630.636 173.03 630.469 172.962C630.302 172.895 630.122 172.866 629.942 172.88L612.216 171.604C610.565 171.522 608.921 171.334 607.294 171.041C606.339 170.847 603.815 169.489 602.904 169.85C601.217 170.518 600.774 178.376 600.429 180.186Z" fill="black"/>
<path d="M617.381 182.01C631.744 182.01 643.387 170.366 643.387 156.003C643.387 141.64 631.744 129.996 617.381 129.996C603.018 129.996 591.374 141.64 591.374 156.003C591.374 170.366 603.018 182.01 617.381 182.01Z" fill="#A0616A"/>
<path d="M604.076 214.252C605.361 215.739 606.909 216.977 608.644 217.902C610.452 218.649 612.394 219.019 614.351 218.988C619.039 219.12 624.121 218.261 627.382 214.891C631.586 210.546 631.447 203.539 634.742 198.471C635.008 198.011 635.37 197.615 635.804 197.309C636.357 197.008 636.981 196.865 637.61 196.894C641.772 196.855 645.397 199.554 648.668 202.126C650.208 203.186 651.53 204.532 652.561 206.092C653.208 207.354 653.651 208.71 653.873 210.111C655.497 218.037 656.023 226.14 656.544 234.213C656.833 238.672 657.121 243.136 657.1 247.604C657.029 262.326 653.607 276.802 650.205 291.125C649.766 292.97 649.166 295.033 647.488 295.917C646.74 296.253 645.936 296.45 645.117 296.496C635.371 297.64 625.605 298.786 615.793 298.937C611.964 298.996 608.136 298.904 604.311 298.659C603.652 298.651 602.999 298.537 602.376 298.322C601.531 297.916 600.805 297.3 600.268 296.531C594.96 289.843 594.647 280.597 594.681 272.059C594.764 251.185 595.51 230.327 596.918 209.486C597.035 207.765 597.06 205.676 595.821 204.323C598.234 207.9 601 211.226 604.076 214.252V214.252Z" fill="white"/>
<path d="M598.567 184.223C597.689 185.813 591.213 189.761 589.963 191.079C582.978 198.442 570.229 198.165 563.841 206.052C561.593 208.826 560.425 212.312 559.566 215.778C558.352 220.68 557.703 226.026 559.738 230.648C561.696 235.096 565.818 238.171 568.616 242.143C571.689 246.505 573.07 251.802 574.394 256.971C575.372 260.787 576.357 264.698 575.977 268.619C575.544 273.077 573.386 277.159 572.113 281.454C570.839 285.748 570.619 290.863 573.564 294.237C575.728 296.717 579.122 297.7 582.366 298.253C586.521 298.877 590.71 299.242 594.911 299.345C598.619 299.509 602.707 299.54 605.557 297.163C607.807 295.287 608.785 292.243 608.911 289.317C609.038 286.391 608.429 283.491 608.047 280.587C607.652 277.577 607.5 274.54 607.373 271.506C606.803 257.895 606.725 244.275 607.14 230.647C607.348 227.814 607.21 224.967 606.726 222.168C605.931 218.522 603.96 215.264 602.316 211.914C599.03 205.605 597.542 198.514 598.014 191.416C598.512 184.122 601.693 178.565 598.567 184.223Z" fill="white"/>
<path d="M635.087 184.776C636.425 186.151 640.971 186.605 642.673 187.49C644.274 188.23 645.945 188.808 647.66 189.217C653.868 191.008 659.773 193.718 665.178 197.257C666.302 197.914 667.294 198.772 668.108 199.788C668.965 201.182 669.517 202.741 669.728 204.364C670.562 208.492 671.399 212.67 671.212 216.877C671.013 221.342 669.668 225.667 668.334 229.934L663.347 245.875C659.625 257.774 655.88 269.79 654.833 282.213C654.253 289.098 654.511 296.029 655.6 302.852C655.702 303.184 655.733 303.534 655.689 303.879C655.646 304.223 655.53 304.555 655.348 304.851C655.02 305.176 654.588 305.375 654.127 305.413C651.721 305.789 649.392 304.562 647.211 303.476C640.547 300.16 633.435 297.832 626.099 296.568C628.965 292.425 631.177 287.866 632.656 283.05C633.496 279.992 634.158 276.888 634.637 273.754L636.957 260.338C637.901 255.434 638.565 250.481 638.947 245.502C639.122 243.634 639.013 241.75 638.624 239.914C638.089 238.167 637.38 236.478 636.505 234.874C632.683 226.922 630.889 217.848 632.393 209.154C633.051 205.35 634.331 201.54 633.797 197.716C633.284 194.039 633.817 191.182 632.874 187.543C629.001 172.603 632.57 182.189 635.087 184.776Z" fill="white"/>
<path d="M563.774 218.624C562.032 222.24 559.118 225.321 558.127 229.211C557.741 231.029 557.575 232.887 557.634 234.745C557.462 237.544 557.739 240.353 558.455 243.065C559.008 244.781 559.909 246.363 560.558 248.045C561.462 250.394 561.865 252.907 561.74 255.421C561.565 258.905 560.382 262.286 560.289 265.773C560.144 271.256 562.68 276.411 565.155 281.306C565.777 279.763 566.73 278.376 567.945 277.24C569.16 276.104 570.609 275.247 572.19 274.729C573.771 274.212 575.446 274.046 577.097 274.243C578.749 274.441 580.338 274.997 581.752 275.872C582.319 275.176 582.588 274.284 582.5 273.391C582.683 267.03 582.86 260.668 583.03 254.306C583.297 244.468 583.553 234.498 581.289 224.919C580.267 220.594 578.677 216.286 575.763 212.932C574.228 211.166 569.017 206.513 566.498 208.492C565.365 209.382 565.63 211.804 565.45 213.03C565.179 214.969 564.614 216.855 563.774 218.624V218.624Z" fill="white"/>
<path d="M671.722 208.202C672.423 210.81 672.723 213.509 672.612 216.207C672.645 221.706 672.572 227.205 672.393 232.703C672.42 235.522 672.06 238.332 671.321 241.054C670.759 242.824 669.89 244.483 669.309 246.247C667.567 251.533 668.519 257.266 668.668 262.83C668.774 264.63 668.62 266.437 668.212 268.194C667.292 271.643 664.822 274.43 663.098 277.555C661.46 280.523 660.472 283.85 658.516 286.619C656.561 289.388 653.175 291.582 649.893 290.732C647.407 290.088 645.64 287.887 644.418 285.628C641.751 280.661 640.839 274.939 641.829 269.389C643.056 262.636 647.023 256.646 648.453 249.933C650.418 240.715 647.432 231.204 647.521 221.779C647.48 220.302 647.681 218.828 648.114 217.415C648.864 215.262 650.476 213.543 651.965 211.817C653.825 209.659 655.553 207.391 657.14 205.025C658.206 203.436 659.653 199.348 661.543 199.008C665.761 198.249 670.675 204.943 671.722 208.202Z" fill="white"/>
<path d="M541.884 300.08C539.551 299.494 537.148 299.239 534.744 299.321C532.218 299.461 529.751 300.137 527.506 301.304C525.262 302.471 523.291 304.102 521.726 306.089C520.161 308.077 519.037 310.375 518.429 312.83C517.82 315.285 517.742 317.842 518.198 320.331C518.78 323.026 519.733 325.628 521.027 328.062C522.921 331.905 525.192 335.74 528.698 338.202C530.81 339.556 533.085 340.639 535.468 341.425L553.932 348.38C556.648 349.404 559.364 350.427 562.108 351.376C575.889 356.139 590.257 358.996 604.812 359.866C609.241 360.281 613.707 360.054 618.072 359.194C619.127 359.056 620.094 358.534 620.787 357.727C621.139 357.114 621.347 356.428 621.394 355.723L622.53 347.769C622.784 346.661 622.751 345.507 622.433 344.416C621.913 343.079 620.608 342.238 619.364 341.524C607.226 334.552 593.052 330.705 582.835 321.137C580.429 318.884 578.417 315.313 575.494 313.783C572.18 312.048 568.277 311.057 564.852 309.459C557.363 305.963 550 301.946 541.884 300.08Z" fill="#243443"/>
<path opacity="0.1" d="M560.318 310.803C566.844 312.848 594.398 327.016 599.121 331.963C598.488 332.191 577.009 320.154 576.364 319.96C570.457 318.338 564.671 316.299 559.052 313.859C557.932 313.342 551.78 310.909 552.059 309.496C552.373 307.903 559.159 310.44 560.318 310.803Z" fill="black"/>
<path d="M641.737 363.991C642.107 364.018 642.475 363.91 642.771 363.686C642.902 363.519 642.997 363.328 643.053 363.124C643.108 362.919 643.123 362.706 643.095 362.496L643.064 351.66C639.948 350.175 636.463 349.699 633.042 349.242L617.079 347.108C617.445 347.157 614.583 353.984 615.022 354.895C615.795 356.501 621.707 357.925 623.376 358.683C629.177 361.32 635.204 364.218 641.737 363.991Z" fill="#A0616A"/>
<path d="M591.653 351.622C588.64 352.102 585.276 352.527 583.324 354.873C580.848 357.848 581.902 362.283 583.083 365.969C583.155 366.445 583.322 366.901 583.573 367.311C583.825 367.722 584.156 368.077 584.547 368.357C584.938 368.637 585.382 368.835 585.851 368.941C586.321 369.046 586.807 369.057 587.28 368.971C590.029 369.145 592.954 369.282 595.355 367.933C596.443 367.214 597.491 366.436 598.492 365.602C600.263 364.423 602.21 363.533 604.26 362.965C608.028 361.779 611.907 360.98 615.837 360.579C617.386 360.508 618.919 360.238 620.398 359.775C621.137 359.537 621.811 359.131 622.368 358.591C622.925 358.05 623.35 357.388 623.61 356.656C624.166 354.687 623.022 352.679 621.924 350.952C620.659 348.691 619.018 346.661 617.069 344.952C614.095 342.642 612.624 344.415 609.628 345.894C603.957 348.693 597.898 350.624 591.653 351.622V351.622Z" fill="#A0616A"/>
<path d="M583.777 354.337L564.64 348.681C562.344 347.881 559.946 347.417 557.518 347.301C556.302 347.251 555.09 347.461 553.962 347.917C552.834 348.373 551.817 349.065 550.978 349.946C549.494 351.687 549.069 354.068 548.699 356.326L547.908 361.156C547.38 363.591 547.231 366.093 547.465 368.573C547.592 369.814 548.001 371.009 548.659 372.068C549.318 373.127 550.21 374.022 551.266 374.684C553.915 376.129 557.16 375.423 560.116 374.819C566.086 373.599 572.158 372.948 578.252 372.874C580.542 372.847 582.945 372.876 584.969 371.803C586.144 371.106 587.131 370.133 587.844 368.969C588.557 367.804 588.975 366.483 589.062 365.12C589.438 360.993 588.063 355.604 583.777 354.337Z" fill="#243443"/>
<path d="M649.259 349.408C651.74 348.973 653.93 347.563 656.307 346.731C659.653 345.559 663.279 345.559 666.824 345.572C668.128 345.453 669.438 345.716 670.595 346.328C672.157 347.367 672.557 349.448 672.822 351.305L674.424 362.51C674.853 364.6 674.897 366.751 674.555 368.857C674.085 370.934 672.67 372.936 670.609 373.471C668.107 374.122 665.654 372.523 663.291 371.473C657.385 368.848 650.52 369.519 644.363 367.558C643.774 367.44 643.217 367.198 642.729 366.849C642.24 366.5 641.832 366.051 641.53 365.532C641.319 364.909 641.244 364.249 641.309 363.596C641.415 359.994 640.655 355.076 641.74 351.634C642.715 348.538 646.49 349.408 649.259 349.408Z" fill="#243443"/>
<path d="M689.758 295.571C693.582 294.612 697.546 294.341 701.465 294.771C704.595 295.116 707.819 295.986 710.104 298.153C712.886 300.789 713.779 304.867 713.854 308.698C713.976 316.33 711.445 323.767 706.693 329.74C705.532 331.251 704.152 332.579 702.598 333.681C700.922 334.73 699.136 335.59 697.272 336.248L655.922 352.558C645.044 356.848 634.128 361.151 622.781 363.98C622.471 364.13 622.134 364.216 621.79 364.233C621.446 364.251 621.102 364.199 620.778 364.082C620.454 363.965 620.157 363.784 619.904 363.55C619.651 363.316 619.448 363.034 619.306 362.72C615.683 357.545 612.644 351.985 610.243 346.142C610.129 346.003 610.051 345.839 610.014 345.663C609.977 345.488 609.984 345.306 610.032 345.133C610.08 344.96 610.17 344.802 610.292 344.671C610.415 344.54 610.568 344.44 610.737 344.381L639.984 327.576C642.128 326.458 644.127 325.08 645.936 323.475C647.2 322.25 648.235 320.809 648.993 319.22C649.599 317.954 649.655 314.966 650.43 314.03C651.188 313.113 653.781 313.04 654.979 312.68C656.669 312.162 658.323 311.537 659.932 310.807C666.474 307.881 672.3 303.628 678.572 300.201C682.089 298.19 685.848 296.634 689.758 295.571V295.571Z" fill="#243443"/>
<path opacity="0.1" d="M673.178 308.12C668.153 311.894 661.647 315.363 656.667 319.236C654.968 320.558 626.635 336.487 626.234 338.603C630.88 339.386 660.476 318.681 664.71 316.615C668.945 314.549 672.698 311.636 676.418 308.744C677.366 308.007 681.383 305.791 678.662 304.968C677.129 304.504 674.31 307.365 673.178 308.12Z" fill="black"/>
<path d="M638.604 185.142H594.497C592.705 185.142 590.987 185.854 589.719 187.121C588.452 188.388 587.74 190.107 587.74 191.898V194.373H587.261V199.906H587.74V203.779H587.261V207.099H587.74V247.927C587.74 249.719 588.452 251.438 589.719 252.705C590.987 253.972 592.705 254.684 594.497 254.684H638.604C640.396 254.684 642.115 253.972 643.382 252.705C644.649 251.438 645.361 249.719 645.361 247.927V191.898C645.361 190.106 644.649 188.388 643.382 187.121C642.115 185.854 640.396 185.142 638.604 185.142V185.142Z" fill="#D0CDE1"/>
<path d="M645.615 132.953L623.244 121.234L592.35 126.028L585.958 154.259L601.869 153.646L606.314 143.275V153.476L613.655 153.193L617.916 136.681L620.58 154.259L646.68 153.725L645.615 132.953Z" fill="#243443"/>
<path d="M569.627 291.914C570.639 293.634 572.078 295.065 573.803 296.068C574.935 296.585 576.17 296.837 577.415 296.803C578.659 296.77 579.879 296.453 580.981 295.876C583.184 294.695 584.987 292.887 586.162 290.682C588.593 286.389 589.097 281.251 588.793 276.327C588.49 271.402 587.438 266.553 586.973 261.641C586.635 258.07 586.607 254.478 586.58 250.892C586.496 250.138 586.654 249.376 587.032 248.718C587.682 248.072 588.523 247.652 589.43 247.52C594.337 246.063 597.594 241.463 599.929 236.908C601.488 233.866 602.844 230.541 602.543 227.136C602.243 223.732 599.795 220.302 596.395 219.954C593.591 219.668 591.003 221.449 588.981 223.411C583.88 228.393 580.601 234.945 579.672 242.014C579.228 245.476 579.356 249.032 578.414 252.393C576.403 259.569 570.113 263.969 566.978 270.426C563.524 277.541 565.43 285.619 569.627 291.914Z" fill="#A0616A"/>
<path d="M662.196 264.499C661.481 266.163 660.439 267.667 659.133 268.922C657.827 270.177 656.282 271.158 654.591 271.806C652.488 272.651 650.169 272.793 647.979 272.211C646.894 271.91 645.892 271.362 645.052 270.611C644.212 269.86 643.556 268.925 643.136 267.879C642.801 266.826 642.618 265.73 642.591 264.625C642.276 259.786 642.398 254.799 644.155 250.28C644.833 248.536 645.748 246.883 646.283 245.091C646.808 243.021 647.077 240.894 647.084 238.759L647.661 225.555C647.757 224.596 647.691 223.628 647.465 222.692C646.889 220.781 645.103 219.54 643.465 218.4C639.508 215.649 635.598 212.438 633.681 208.016C633.022 206.685 632.786 205.184 633.005 203.715C633.546 201.093 636.192 199.396 638.807 198.824C640.518 198.45 642.287 198.426 644.008 198.754C645.728 199.082 647.365 199.754 648.819 200.731C650.272 201.709 651.513 202.97 652.467 204.439C653.42 205.909 654.066 207.556 654.365 209.282C654.624 210.772 654.621 212.294 654.772 213.799C655.093 216.991 656.107 220.068 656.741 223.213C658.302 230.959 657.493 238.967 659.037 246.712C660.328 253.187 665.197 257.413 662.196 264.499Z" fill="#A0616A"/>
<path d="M617.141 214.846C620.197 214.846 622.674 212.369 622.674 209.313C622.674 206.257 620.197 203.779 617.141 203.779C614.085 203.779 611.608 206.257 611.608 209.313C611.608 212.369 614.085 214.846 617.141 214.846Z" fill="#377DFF"/>
<path d="M206.499 604.686C162.789 604.707 120.4 589.703 86.4363 562.189C52.4725 534.676 28.9976 496.324 19.9458 453.562C10.894 410.8 16.8153 366.225 36.7174 327.309C56.6195 288.393 89.2929 257.501 129.262 239.808C169.231 222.116 214.067 218.699 256.255 230.131C298.444 241.562 335.421 267.147 360.99 302.598C386.56 338.048 399.167 381.211 396.7 424.851C394.232 468.491 376.84 509.957 347.438 542.299L387.24 586.917L367.378 595.342C336.652 608.376 306.583 595.694 289.707 585.572C263.77 598.146 235.322 604.681 206.499 604.686V604.686ZM206.499 254.824C118.567 254.824 47.0286 326.362 47.0286 414.294C47.0286 502.226 118.567 573.764 206.499 573.764C233.294 573.767 259.659 567.023 283.162 554.155L291.664 549.483L299.57 555.108C305.332 559.207 316.694 566.265 329.741 568.912L304.694 540.836L315.673 530.519C331.621 515.664 344.322 497.669 352.977 477.667C361.633 457.665 366.056 436.089 365.968 414.294C365.968 326.362 294.43 254.824 206.499 254.824V254.824Z" fill="#58616A"/>
<path d="M381.429 414.294C381.429 317.682 303.11 239.363 206.498 239.363C109.887 239.363 31.5673 317.682 31.5673 414.294C31.5673 510.906 109.887 589.225 206.498 589.225C235.901 589.268 264.837 581.865 290.607 567.706C302.699 576.31 332.198 593.471 361.34 581.109L326.261 541.786C343.699 525.447 357.594 505.7 367.084 483.769C376.574 461.838 381.457 438.19 381.429 414.294Z" fill="#377DFF"/>
<path opacity="0.1" d="M62.4894 413.411C62.4894 322.01 132.591 246.996 221.959 239.167C216.864 238.721 211.71 238.48 206.498 238.48C109.886 238.48 31.5673 316.799 31.5673 413.411C31.5673 510.022 109.886 588.342 206.498 588.342C211.702 588.342 216.847 588.097 221.935 587.651C132.578 579.812 62.4894 504.802 62.4894 413.411Z" fill="black"/>
<path d="M16.3243 408.181C25.339 408.181 32.6469 400.873 32.6469 391.859C32.6469 382.844 25.339 375.536 16.3243 375.536C7.30959 375.536 0.00170898 382.844 0.00170898 391.859C0.00170898 400.873 7.30959 408.181 16.3243 408.181Z" fill="#243443"/>
<path d="M75.491 440.316L67.2695 432.324L50.7605 437.452L52.3461 456.568L86.291 454.991L75.863 440.822L75.491 440.316Z" fill="#FBBEBE"/>
<path d="M57.5099 440.151C72.0843 440.151 83.8991 428.336 83.8991 413.762C83.8991 399.188 72.0843 387.373 57.5099 387.373C42.9356 387.373 31.1207 399.188 31.1207 413.762C31.1207 428.336 42.9356 440.151 57.5099 440.151Z" fill="#FBBEBE"/>
<path d="M221.336 474.187C221.336 474.187 253.755 529.9 261.471 538.264C265.14 542.381 269.049 546.277 273.178 549.932C273.178 549.932 269.55 561.963 263.773 561.534C260.48 561.336 257.251 560.54 254.243 559.185C254.243 559.185 251.665 552.502 247.168 549.57C242.67 546.639 205.926 510.49 206.785 498.937C207.644 487.383 221.336 474.187 221.336 474.187Z" fill="#243443"/>
<path d="M105.879 553.692C105.879 553.692 140.446 580.522 187.423 555.312L191.472 552.332C191.472 552.332 184.64 567.702 184.006 571.869C183.271 576.7 165.483 605.003 162.581 606.359C159.678 607.715 159.038 608.966 159.038 608.966L171.356 622.524L175.911 619.172C175.911 619.172 193.67 594.011 198.864 589.409C204.058 584.806 228.805 537.34 228.805 537.34C228.805 537.34 238.267 519.455 214.654 518.11C191.04 516.765 180.174 523.201 180.174 523.201L138.267 529.858L105.879 553.692Z" fill="#243443"/>
<path d="M273.579 547.297L291.062 559.394C291.062 559.394 313.368 566.382 299.628 571.033C285.888 575.684 249.68 577.366 248.859 570.949C248.037 564.533 250.287 554.433 252.093 554.986C253.899 555.538 266.437 558.793 273.579 547.297Z" fill="#243443"/>
<path d="M177.458 615.016L180.694 632.787C180.694 632.787 189.896 650.385 178.848 644.925C167.799 639.464 145.037 618.723 148.399 614.375C151.76 610.027 159.178 605.311 159.932 606.728C160.685 608.145 166.261 617.633 177.458 615.016Z" fill="#243443"/>
<path d="M144.12 535.692C144.12 535.692 120.623 563.125 106.357 556.461C92.0913 549.797 33.7276 472.61 40.3917 458.345C47.0558 444.079 49.2903 447.115 49.2903 447.115L79.4254 449.902L70.7547 436C70.7547 436 74.8031 433.021 78.6609 437.203C82.5186 441.385 98.0067 451.83 103.402 466.582C108.798 481.334 124.639 480.598 124.639 480.598L144.12 535.692Z" fill="white"/>
<path d="M239.01 479.123L198.278 522.36L161.79 457.938L196.478 416.028L239.01 479.123Z" fill="#243443"/>
<path d="M235.936 478.655L199.147 516.65L165.811 458.1L196.383 419.609L235.936 478.655Z" fill="white"/>
<path d="M196.283 520.708L198.278 522.359L196.999 524.861L140.043 541.813L139.504 539.861L142.096 537.182L196.283 520.708Z" fill="#B3B3B3"/>
<path d="M198.784 521.988L139.805 540.428L103.852 472.492L161.79 457.938L198.784 521.988Z" fill="#D0CDE1"/>
<path d="M194.344 512.773L191.813 514.635L163.73 465.873L166.632 464.517L194.344 512.773Z" fill="#243443"/>
<path d="M188.538 515.485L163.589 522.924L135.266 472.777L159.949 467.095L188.538 515.485Z" fill="#243443"/>
<path d="M118.251 478.278L123.416 476.817C123.416 476.817 152.224 473.56 152.644 482.611C153.065 491.663 119.55 487.464 119.55 487.464L115.081 481.391L118.251 478.278Z" fill="#FBBEBE"/>
<path d="M143.518 518.972L150.708 516.022C150.708 516.022 172.411 506.291 166.185 499.951C159.959 493.611 140.758 504.621 140.758 504.621L137.082 508.107L143.518 518.972Z" fill="#FBBEBE"/>
<path d="M137.11 504.965C137.11 504.965 148.817 516.633 146.153 519.373C143.489 522.114 99.8068 558.161 88.9783 546.627C78.1499 535.093 25.392 477.184 45.9209 472.218C66.4498 467.252 71.8739 478.863 71.8739 478.863L98.9745 525.229L137.11 504.965Z" fill="white"/>
<path d="M102.056 469.523L121.287 476.044L120.973 489.927L100.634 487.732L102.056 469.523Z" fill="white"/>
<path opacity="0.2" d="M119.389 512.156L98.6694 524.284L74.9969 487.876L97.8477 517.867L119.389 512.156Z" fill="black"/>
<path d="M45.9269 437.528C63.2773 437.528 77.3426 423.463 77.3426 406.113C77.3426 388.762 63.2773 374.697 45.9269 374.697C28.5765 374.697 14.5112 388.762 14.5112 406.113C14.5112 423.463 28.5765 437.528 45.9269 437.528Z" fill="#243443"/>
<path d="M215.673 481.864L193.676 449.685L203.001 438.142L225.858 471.249L215.673 481.864Z" fill="#377DFF"/>
<path d="M215.053 494.802L181.565 446.116L183.216 444.121L216.548 492.921L215.053 494.802Z" fill="#E6E6E6"/>
<path d="M210.738 499.538L177.249 450.852L178.901 448.857L212.233 497.658L210.738 499.538Z" fill="#E6E6E6"/>
<path d="M207.062 503.023L173.573 454.338L175.225 452.342L208.557 501.143L207.062 503.023Z" fill="#E6E6E6"/>
<path d="M59.839 385.139H69.5574C74.478 385.139 79.1971 387.094 82.6766 390.573C86.156 394.052 88.1107 398.772 88.1107 403.692V403.692H59.839V385.139Z" fill="#243443"/>
<path d="M197.191 349.155L195.429 349.023C195.36 349.939 195.312 350.861 195.253 351.78L187.345 351.515L195.641 367.06L204.957 352.105L197.02 351.839C197.077 350.944 197.124 350.047 197.191 349.155Z" fill="#58616A"/>
<path d="M243.574 222.447L244.979 223.52C247.086 220.76 249.286 218.005 251.52 215.331L250.163 214.199C247.914 216.892 245.697 219.667 243.574 222.447Z" fill="#58616A"/>
<path d="M257.109 206.249L258.414 207.44C260.758 204.873 263.192 202.324 265.647 199.862L264.396 198.614C261.923 201.094 259.471 203.663 257.109 206.249Z" fill="#58616A"/>
<path d="M272.01 191.308L273.205 192.609C275.769 190.255 278.416 187.93 281.073 185.698L279.936 184.345C277.26 186.594 274.593 188.937 272.01 191.308Z" fill="#58616A"/>
<path d="M231.514 239.782L233.007 240.726C234.864 237.787 236.815 234.848 238.803 231.989L237.353 230.98C235.349 233.86 233.385 236.821 231.514 239.782Z" fill="#58616A"/>
<path d="M288.159 177.739L289.235 179.14C291.996 177.02 294.836 174.938 297.677 172.95L296.664 171.502C293.802 173.505 290.94 175.603 288.159 177.739Z" fill="#58616A"/>
<path d="M221.029 258.122L222.6 258.929C224.192 255.834 225.875 252.732 227.603 249.711L226.069 248.834C224.328 251.878 222.632 255.002 221.029 258.122Z" fill="#58616A"/>
<path d="M203.985 307.858L202.274 307.418C201.401 310.808 200.593 314.265 199.872 317.694L201.601 318.058C202.317 314.655 203.119 311.223 203.985 307.858Z" fill="#58616A"/>
<path d="M305.433 165.648L306.381 167.139C309.31 165.275 312.321 163.452 315.331 161.719L314.449 160.187C311.417 161.934 308.383 163.771 305.433 165.648Z" fill="#58616A"/>
<path d="M199.672 328.354L197.928 328.067C197.361 331.517 196.863 335.032 196.447 338.515L198.202 338.724C198.614 335.267 199.109 331.778 199.672 328.354Z" fill="#58616A"/>
<path d="M212.209 277.33L213.846 277.995C215.156 274.771 216.557 271.53 218.011 268.364L216.406 267.626C214.941 270.816 213.529 274.081 212.209 277.33Z" fill="#58616A"/>
<path d="M205.132 297.259L206.822 297.775C207.841 294.441 208.948 291.087 210.113 287.805L208.448 287.214C207.274 290.52 206.158 293.9 205.132 297.259Z" fill="#58616A"/>
<path d="M424.961 130.429C428.425 130.309 431.952 130.261 435.441 130.294L435.456 128.527C431.943 128.494 428.388 128.542 424.9 128.663L424.961 130.429Z" fill="#58616A"/>
<path d="M323.697 155.133L324.509 156.702C327.595 155.103 330.754 153.554 333.899 152.097L333.156 150.494C329.988 151.962 326.805 153.522 323.697 155.133Z" fill="#58616A"/>
<path d="M466.772 132.632C470.219 133.12 473.697 133.691 477.111 134.33L477.436 132.593C473.997 131.95 470.492 131.374 467.019 130.883L466.772 132.632Z" fill="#58616A"/>
<path d="M487.367 136.485C490.75 137.276 494.165 138.154 497.515 139.096L497.993 137.394C494.618 136.446 491.178 135.561 487.769 134.765L487.367 136.485Z" fill="#58616A"/>
<path d="M507.534 142.156C510.833 143.244 514.156 144.423 517.409 145.659L518.037 144.008C514.759 142.762 511.412 141.574 508.088 140.478L507.534 142.156Z" fill="#58616A"/>
<path d="M445.916 130.615C449.395 130.798 452.911 131.06 456.367 131.394L456.537 129.635C453.056 129.298 449.514 129.034 446.009 128.851L445.916 130.615Z" fill="#58616A"/>
<path d="M403.865 130.316L404.08 132.07C407.524 131.647 411.03 131.293 414.501 131.021L414.363 129.259C410.865 129.534 407.333 129.889 403.865 130.316Z" fill="#58616A"/>
<path d="M362.643 139.156L363.166 140.844C366.487 139.816 369.875 138.849 373.238 137.969L372.792 136.26C369.403 137.145 365.989 138.12 362.643 139.156Z" fill="#58616A"/>
<path d="M342.808 146.281L343.478 147.916C346.691 146.597 349.973 145.335 353.232 144.164L352.635 142.502C349.35 143.681 346.044 144.953 342.808 146.281Z" fill="#58616A"/>
<path d="M383.058 133.818L383.428 135.546C386.823 134.819 390.284 134.156 393.716 133.579L393.423 131.836C389.965 132.418 386.478 133.085 383.058 133.818Z" fill="#58616A"/>
<path d="M543.773 156.584L533.899 141.991L530.427 149.138C529.587 148.763 528.751 148.38 527.911 148.016L527.209 149.638C528.029 149.993 528.839 150.365 529.654 150.728L526.199 157.841L543.773 156.584Z" fill="#58616A"/>
</g>
<defs>
<clipPath id="clip0">
<rect width="800" height="645.975" fill="white"/>
</clipPath>
</defs>
</svg>
