<svg width="800" height="702" viewBox="0 0 800 702" fill="none" xmlns="http://www.w3.org/2000/svg">
<g clip-path="url(#clip0)">
<path d="M446.063 701.775C606.233 701.775 736.075 678.823 736.075 650.51C736.075 622.197 606.233 599.244 446.063 599.244C285.894 599.244 156.052 622.197 156.052 650.51C156.052 678.823 285.894 701.775 446.063 701.775Z" fill="#58616A"/>
<path d="M624.344 607.26C624.129 606.907 619.042 598.408 617.278 580.76C615.661 564.569 616.701 537.277 630.846 499.208C657.644 427.087 624.67 368.897 624.333 368.317L625.96 367.373C626.046 367.52 634.554 382.356 639.58 405.981C646.221 437.302 643.803 469.868 632.609 499.864C605.857 571.861 625.745 605.944 625.949 606.28L624.344 607.26Z" fill="#58616A"/>
<path d="M613.866 364.082C620.615 364.082 626.087 358.607 626.087 351.854C626.087 345.1 620.615 339.625 613.866 339.625C607.117 339.625 601.645 345.1 601.645 351.854C601.645 358.607 607.117 364.082 613.866 364.082Z" fill="#377DFF"/>
<path d="M652.409 409.233C659.158 409.233 664.63 403.758 664.63 397.005C664.63 390.251 659.158 384.776 652.409 384.776C645.659 384.776 640.188 390.251 640.188 397.005C640.188 403.758 645.659 409.233 652.409 409.233Z" fill="#58616A"/>
<path d="M626.087 439.334C632.836 439.334 638.308 433.859 638.308 427.106C638.308 420.352 632.836 414.877 626.087 414.877C619.338 414.877 613.866 420.352 613.866 427.106C613.866 433.859 619.338 439.334 626.087 439.334Z" fill="#377DFF"/>
<path d="M658.049 464.732C664.799 464.732 670.27 459.257 670.27 452.503C670.27 445.75 664.799 440.275 658.049 440.275C651.3 440.275 645.828 445.75 645.828 452.503C645.828 459.257 651.3 464.732 658.049 464.732Z" fill="#377DFF"/>
<path d="M616.686 504.239C623.436 504.239 628.907 498.764 628.907 492.01C628.907 485.257 623.436 479.782 616.686 479.782C609.937 479.782 604.465 485.257 604.465 492.01C604.465 498.764 609.937 504.239 616.686 504.239Z" fill="#58616A"/>
<path d="M631.727 607.71C631.727 607.71 619.506 577.609 656.169 555.034L631.727 607.71Z" fill="#58616A"/>
<path d="M616.697 607.164C616.697 607.164 611.136 575.154 568.088 575.429L616.697 607.164Z" fill="#58616A"/>
<path d="M253.061 318.579C271.494 291.161 279.498 258.04 275.621 225.224C271.743 192.408 256.241 162.068 231.926 139.707C207.61 117.347 176.092 104.446 143.086 103.343C110.079 102.241 77.7711 113.011 52.0198 133.7C26.2686 154.388 8.7794 183.626 2.72394 216.111C-3.33153 248.595 2.44766 282.176 19.0135 310.763C35.5793 339.35 61.8348 361.05 93.0187 371.928C124.203 382.806 158.25 382.142 188.987 370.056C190.979 377.173 194.705 383.684 199.829 389.007C204.953 394.33 211.317 398.299 218.35 400.557C225.383 402.816 232.866 403.294 240.129 401.949C247.392 400.604 254.208 397.478 259.968 392.851C265.728 388.224 270.25 382.24 273.132 375.434C276.013 368.629 277.163 361.215 276.479 353.856C275.795 346.497 273.297 339.422 269.21 333.266C265.123 327.11 259.574 322.063 253.061 318.579V318.579Z" fill="#377DFF"/>
<path d="M220.472 213.813H56.1988V226.79H220.472V213.813Z" fill="white"/>
<path d="M220.472 235.441H56.1988V248.418H220.472V235.441Z" fill="white"/>
<path d="M220.472 257.07H56.1988V270.047H220.472V257.07Z" fill="white"/>
<path d="M546.939 215.791C528.506 188.373 520.502 155.252 524.379 122.436C528.257 89.6195 543.759 59.28 568.074 36.9193C592.389 14.5586 623.908 1.65733 656.914 0.555097C689.921 -0.547138 722.229 10.2226 747.98 30.9114C773.731 51.6001 791.221 80.8379 797.276 113.323C803.332 145.807 797.552 179.388 780.987 207.975C764.421 236.561 738.165 258.261 706.981 269.14C675.797 280.018 641.75 279.354 611.013 267.268C609.021 274.385 605.295 280.896 600.171 286.219C595.047 291.542 588.683 295.51 581.65 297.769C574.617 300.028 567.134 300.506 559.871 299.161C552.608 297.816 545.792 294.69 540.032 290.063C534.272 285.436 529.749 279.452 526.868 272.646C523.987 265.841 522.837 258.427 523.521 251.068C524.205 243.709 526.703 236.634 530.79 230.478C534.877 224.321 540.425 219.275 546.939 215.791V215.791Z" fill="#377DFF"/>
<path d="M579.528 124.002L743.801 124.002V111.025L579.528 111.025V124.002Z" fill="white"/>
<path d="M579.528 145.63L743.801 145.63V132.653L579.528 132.653V145.63Z" fill="white"/>
<path d="M579.528 167.258L743.801 167.258V154.281L579.528 154.281V167.258Z" fill="white"/>
<path d="M307.133 594.011C296.842 578.704 292.373 560.214 294.538 541.893C296.703 523.572 305.357 506.634 318.932 494.15C332.507 481.666 350.104 474.464 368.531 473.848C386.958 473.233 404.995 479.246 419.372 490.796C433.748 502.346 443.512 518.669 446.893 536.805C450.274 554.941 447.047 573.688 437.799 589.648C428.55 605.608 413.892 617.722 396.482 623.796C379.073 629.869 360.065 629.498 342.905 622.751C341.792 626.724 339.713 630.359 336.852 633.331C333.991 636.303 330.438 638.518 326.512 639.779C322.585 641.04 318.408 641.307 314.353 640.556C310.298 639.805 306.492 638.06 303.277 635.477C300.061 632.893 297.536 629.553 295.928 625.753C294.319 621.954 293.677 617.815 294.059 613.706C294.441 609.598 295.835 605.648 298.117 602.211C300.399 598.774 303.496 595.957 307.133 594.011V594.011Z" fill="#377DFF"/>
<path d="M340.824 558.116C345.751 558.116 349.746 554.119 349.746 549.189C349.746 544.258 345.751 540.261 340.824 540.261C335.896 540.261 331.901 544.258 331.901 549.189C331.901 554.119 335.896 558.116 340.824 558.116Z" fill="white"/>
<path d="M371.264 558.116C376.191 558.116 380.186 554.119 380.186 549.189C380.186 544.258 376.191 540.261 371.264 540.261C366.336 540.261 362.342 544.258 362.342 549.189C362.342 554.119 366.336 558.116 371.264 558.116Z" fill="white"/>
<path d="M401.704 558.116C406.631 558.116 410.626 554.119 410.626 549.189C410.626 544.258 406.631 540.261 401.704 540.261C396.776 540.261 392.782 544.258 392.782 549.189C392.782 554.119 396.776 558.116 401.704 558.116Z" fill="white"/>
<path d="M380.199 272.231C380.199 272.231 420.007 273.314 426.582 275.708C433.156 278.101 436.096 295.216 436.096 295.216L405.188 304.937L382.069 303.627L364.671 304.857L374.386 279.398L380.199 272.231Z" fill="#243443"/>
<path d="M381.916 259.161C381.916 259.161 384.535 269.283 378.722 276.45C372.909 283.617 403.711 309.156 403.711 309.156L419.96 306.361C419.96 306.361 416.379 275.26 421.19 267.384C426 259.508 381.916 259.161 381.916 259.161Z" fill="#9F616A"/>
<path opacity="0.1" d="M381.916 259.161C381.916 259.161 384.535 269.283 378.722 276.45C372.909 283.617 403.711 309.156 403.711 309.156L419.96 306.361C419.96 306.361 416.379 275.26 421.19 267.384C426 259.508 381.916 259.161 381.916 259.161Z" fill="black"/>
<path d="M489.984 555.107L454.13 602.682L478.598 616.976L512.274 561.846L489.984 555.107Z" fill="#9F616A"/>
<path d="M464.834 603.485C464.834 603.485 451.632 588.134 452.22 591.558C452.808 594.981 442.826 624.01 452.113 626.818C461.4 629.626 541.044 637.073 542.14 628.074C543.236 619.075 518.38 612.778 518.38 612.778C518.38 612.778 503.614 598.577 500.34 600.021C497.066 601.466 464.834 603.485 464.834 603.485Z" fill="#243443"/>
<path d="M481.939 600.543L510.577 649.361L532.197 636.833L503.32 596.865L481.939 600.543Z" fill="#9F616A"/>
<path d="M527.146 484.4L518.647 496.434C518.647 496.434 478.131 552.741 482.433 557.287C486.736 561.833 504.656 579.015 513.77 575.686C522.883 572.356 555.262 514.806 555.262 514.806L546.816 481.017L527.146 484.4Z" fill="#243443"/>
<path d="M352.611 473.008C352.611 473.008 361.685 489.949 384.682 495.686C407.68 501.422 431.707 513.148 432.562 513.001C433.418 512.854 435.836 511.557 436.424 514.98C437.012 518.403 443.32 524.367 443.32 524.367C443.32 524.367 468.723 610.745 478.425 610.839C488.126 610.932 508.064 603.979 508.478 601.265C508.893 598.551 478.772 510.34 478.478 508.629L474.95 488.09C474.95 488.09 514.785 494.455 518.5 495.578C522.215 496.701 555.262 514.806 555.262 514.806C555.262 514.806 588.95 490.51 557.44 465.974C525.93 441.438 471.769 423.44 471.769 423.44L452.339 417.971L435.406 416.96L432.912 407.393L392.807 409.708L350.954 427.479L352.611 473.008Z" fill="#243443"/>
<path d="M405.542 279.308C422.795 279.308 436.781 265.313 436.781 248.049C436.781 230.785 422.795 216.79 405.542 216.79C388.288 216.79 374.302 230.785 374.302 248.049C374.302 265.313 388.288 279.308 405.542 279.308Z" fill="#9F616A"/>
<path d="M377.279 273.174L381.036 272.528C381.036 272.528 387.822 298.673 408.816 302.992C408.816 302.992 419.174 290.575 418.732 288.48C418.29 286.385 426.936 275.206 431.533 281.464C436.13 287.722 430.411 397.955 434.272 399.934C438.134 401.912 446.42 404.012 439.751 411.326C433.083 418.64 406.598 428.481 400.731 425.085C394.865 421.689 382.878 392.914 377.693 383.233C372.508 373.552 364.21 340.619 364.21 340.619C364.21 340.619 353.613 304.556 360.134 296.386C366.655 288.217 377.279 273.174 377.279 273.174Z" fill="#E5F1FF"/>
<path d="M407.177 408.882C406.479 416.561 405.283 424.186 403.599 431.71C402.066 437.831 400.283 441.527 398.247 441.37C393.052 440.982 390.691 448.605 389.474 457.394C388.173 466.718 388.173 477.355 387.459 481.114C386.515 486.08 380.47 489.871 368.392 488.758C361.198 487.939 354.138 486.207 347.383 483.602C331.075 477.67 331.558 429.557 334.287 393.856C335.955 371.973 338.463 354.742 338.463 354.742C338.463 354.742 333.51 339.958 331.925 329.825C331.61 327.976 331.452 326.104 331.453 324.228C331.694 315.376 347.845 291.457 357.604 276.557C367.374 261.657 380.701 272.587 380.701 272.587L376.063 286.595C376.063 286.595 383.251 297.694 383.303 308.257C383.356 318.82 400.513 326.444 406.673 331.557C410.546 334.77 410.451 377.664 407.177 408.882Z" fill="#243443"/>
<path d="M420.742 277.593C420.742 277.593 421.868 278.925 427.023 278.275C433.205 277.496 441.705 279.636 443.68 285.542C447.301 296.373 457.511 340.431 457.511 340.431C457.511 340.431 461.76 390.801 463.671 401.926C465.582 413.051 464.633 422.905 466.518 428.749C468.402 434.592 447.916 417.851 440.366 420.031C432.816 422.21 427.965 393.97 428.914 384.115C429.863 374.261 430.664 363.55 428.045 353.428C425.426 343.306 430.07 316.517 429.896 310.379C429.722 304.242 413.248 288.774 420.742 277.593Z" fill="#243443"/>
<path d="M442.847 434.141C442.847 434.141 475.924 452.198 479.089 477.898C482.255 503.598 434.847 453.013 434.847 453.013L442.847 434.141Z" fill="#9F616A"/>
<path d="M461.728 415.916C461.728 415.916 471.864 467.036 487.653 464.32C503.442 461.605 478.833 412.974 478.833 412.974L461.728 415.916Z" fill="#9F616A"/>
<path d="M515.801 638.771C515.801 638.771 507.717 648.091 505.712 646.674C503.708 645.256 499.097 664.551 503.253 668.242C507.409 671.932 523.418 677.989 523.592 684.127C523.766 690.264 566.701 689.047 568.238 682.616C569.775 676.184 562.853 661.516 557.989 658.828C553.124 656.141 535.139 631.404 535.139 631.404C535.139 631.404 521.053 633.463 515.801 638.771Z" fill="#243443"/>
<path opacity="0.1" d="M437.578 465.405C429.907 459.987 408.489 458.643 389.474 457.394C381.131 456.858 373.25 456.333 367.195 455.482C361.361 454.674 356.114 449.34 351.454 441.391C344.392 429.347 338.683 411.286 334.286 393.856C335.955 371.973 338.463 354.742 338.463 354.742C338.463 354.742 333.51 339.958 331.925 329.825C333.042 328.269 334.481 326.973 336.144 326.024C356.313 317.361 375.569 402.613 378.014 415.991C378.056 416.211 378.088 416.421 378.119 416.6C379.305 423.488 392.118 429.379 403.599 431.71C410.671 433.148 417.251 433.243 420.284 431.374C428.249 426.48 452.741 446.064 454.599 446.62C456.456 447.187 448.596 473.207 437.578 465.405Z" fill="black"/>
<path d="M336.147 320.776C336.147 320.776 321.488 327.702 327.929 360.074C334.37 392.446 347.346 447.482 367.19 450.237C387.034 452.991 426.549 452.362 437.573 460.158C448.598 467.953 456.455 441.933 454.598 441.371C452.74 440.81 428.246 421.234 420.281 426.128C412.317 431.022 380.032 422.478 378.121 411.353C376.21 400.228 356.646 311.964 336.147 320.776Z" fill="#243443"/>
<path d="M441.782 305.251L457.893 342.658C457.893 342.658 459.515 341.849 461.399 347.692C463.284 353.535 464.166 358.67 467.466 362.507C470.767 366.345 485.453 421.087 485.894 423.654C486.335 426.221 465.61 435.072 460.979 427.939C456.348 420.806 441.782 305.251 441.782 305.251Z" fill="#243443"/>
<path d="M387.768 247.614C388.965 247.294 389.141 245.704 389.181 244.464C389.396 237.828 393.39 231.018 399.739 229.086C402.175 228.417 404.726 228.277 407.221 228.674C410.782 229.148 414.22 230.296 417.353 232.056C419.007 232.986 420.629 234.107 422.504 234.391C423.743 234.578 429.106 236.139 430.34 236.358C433.052 236.841 435.572 239.269 438.174 238.366C440.664 237.501 441.215 234.276 441.275 231.64C441.412 225.634 436.856 217.322 432.843 212.854C429.797 209.464 425.211 207.899 420.729 207.085C415.492 206.243 410.186 205.92 404.886 206.121C397.712 206.249 390.34 206.803 383.871 209.909C377.402 213.014 371.969 219.196 371.658 226.369C371.594 227.863 371.748 229.363 371.622 230.854C371.316 234.489 369.387 237.773 368.482 241.307C367.835 243.9 367.738 246.6 368.198 249.233C368.658 251.866 369.664 254.373 371.151 256.593C373.552 260.128 377.325 263.325 377.187 267.597L382.392 262.201C383.17 261.607 383.72 260.764 383.951 259.813C384.183 258.862 384.081 257.86 383.664 256.975L381.821 249.783C381.347 248.5 381.292 247.099 381.661 245.781C383.637 240.897 385.772 248.147 387.768 247.614Z" fill="#243443"/>
</g>
<defs>
<clipPath id="clip0">
<rect width="800" height="701.775" fill="white"/>
</clipPath>
</defs>
</svg>
