<svg width="24" height="24" viewBox="0 0 24 24" fill="none" xmlns="http://www.w3.org/2000/svg">
<path fill-rule="evenodd" clip-rule="evenodd" d="M1.33334 12.9428C0.812634 12.9428 0.390527 12.5207 0.390521 12C0.390527 11.4793 0.812634 11.0572 1.33334 11.0572L11.0572 11.0572L11.0572 1.33331C11.0572 0.812631 11.4793 0.390496 12 0.39051C12.5207 0.390531 12.9428 0.812638 12.9428 1.33332L12.9428 11.0572L22.6667 11.0572C23.1874 11.0572 23.6095 11.4793 23.6095 12C23.6095 12.5207 23.1874 12.9428 22.6667 12.9428L12.9428 12.9428L12.9428 22.6667C12.9428 23.1874 12.5207 23.6095 12 23.6095C11.4793 23.6095 11.0572 23.1874 11.0572 22.6667L11.0572 12.9428L1.33334 12.9428Z" fill="white"/>
<path fill-rule="evenodd" clip-rule="evenodd" d="M1.33334 12.9428C0.812634 12.9428 0.390527 12.5207 0.390521 12C0.390527 11.4793 0.812634 11.0572 1.33334 11.0572L11.0572 11.0572L11.0572 1.33331C11.0572 0.812631 11.4793 0.390496 12 0.39051C12.5207 0.390531 12.9428 0.812638 12.9428 1.33332L12.9428 11.0572L22.6667 11.0572C23.1874 11.0572 23.6095 11.4793 23.6095 12C23.6095 12.5207 23.1874 12.9428 22.6667 12.9428L12.9428 12.9428L12.9428 22.6667C12.9428 23.1874 12.5207 23.6095 12 23.6095C11.4793 23.6095 11.0572 23.1874 11.0572 22.6667L11.0572 12.9428L1.33334 12.9428Z" fill="url(#paint0_linear)"/>
<defs>
<linearGradient id="paint0_linear" x1="6" y1="6" x2="18" y2="18" gradientUnits="userSpaceOnUse">
<stop stop-color="white"/>
<stop offset="1" stop-color="white" stop-opacity="0"/>
</linearGradient>
</defs>
</svg>
