<svg width="24" height="24" viewBox="0 0 24 24" fill="none" xmlns="http://www.w3.org/2000/svg">
<path fill-rule="evenodd" clip-rule="evenodd" d="M6.3999 10.5C5.6268 10.5 5 11.1716 5 12C5 12.8285 5.6268 13.5 6.3999 13.5L14.2203 13.5L12.4103 15.4394C11.8636 16.0251 11.8636 16.9749 12.4103 17.5607C12.9571 18.1464 13.8434 18.1464 14.3903 17.5607L18.5901 13.0607C18.8526 12.7794 19 12.3978 19 12C19 11.6022 18.8526 11.2206 18.5901 10.9394L14.3903 6.4393C13.8434 5.8536 12.9571 5.8536 12.4103 6.4393C11.8636 7.0251 11.8636 7.9749 12.4103 8.5607L14.2203 10.5L6.3999 10.5Z" fill="#377DFF"/>
</svg>
