<svg width="394" height="210" viewBox="0 0 394 210" fill="none" xmlns="http://www.w3.org/2000/svg">
<path d="M80.352 90.784H53.856V172H31.536V90.784H5.04V71.2H80.352V90.784ZM107.816 173.296C98.4075 173.296 91.1115 169.744 85.9275 162.64C80.8395 155.44 78.2955 145.84 78.2955 133.84C78.2955 121.744 80.9355 112.144 86.2155 105.04C91.4955 97.84 98.7915 94.24 108.104 94.24C114.536 94.24 119.48 95.68 122.936 98.56C126.392 101.344 128.792 104.176 130.136 107.056H131.288V95.824H153.896V172H131.288V159.76H130.136C128.696 162.832 126.2 165.856 122.648 168.832C119.192 171.808 114.248 173.296 107.816 173.296ZM116.312 155.296C121.4 155.296 125.192 153.184 127.688 148.96C130.184 144.64 131.432 139.552 131.432 133.696C131.432 127.936 130.184 122.944 127.688 118.72C125.192 114.4 121.4 112.24 116.312 112.24C111.032 112.24 107.144 114.352 104.648 118.576C102.248 122.704 101.048 127.696 101.048 133.552C101.048 139.504 102.248 144.64 104.648 148.96C107.144 153.184 111.032 155.296 116.312 155.296ZM195.686 172.432C188.102 172.432 182.486 171.28 178.838 168.976C175.286 166.672 173.078 163.888 172.214 160.624C171.35 157.36 170.918 153.184 170.918 148.096L171.062 64H193.382V143.488C193.382 146.848 193.526 149.392 193.814 151.12C194.198 152.752 195.158 154.048 196.694 155.008C198.326 155.968 200.87 156.448 204.326 156.448C206.15 156.448 207.398 156.352 208.07 156.16V171.712C203.75 172.192 199.622 172.432 195.686 172.432ZM221.402 65.152H244.01V124.48H244.73L265.898 95.824H290.666L265.178 130.96L291.242 172H266.33L244.874 135.568H244.01V172H221.402V65.152ZM304.083 95.824H326.403V107.92H327.555C328.707 104.56 330.963 101.728 334.323 99.424C337.779 97.024 342.243 95.824 347.715 95.824C349.347 95.824 350.883 95.968 352.323 96.256L351.315 116.848C349.107 116.08 346.563 115.696 343.683 115.696C337.635 115.696 333.219 117.232 330.435 120.304C327.747 123.376 326.403 128.464 326.403 135.568V172H304.083V95.824Z" fill="#243443"/>
<circle cx="374" cy="152" r="20" fill="#377DFF"/>
</svg>
