<svg width="24" height="24" viewBox="0 0 24 24" fill="none" xmlns="http://www.w3.org/2000/svg">
<path d="M11.996 19C13.0985 19 14.1352 18.8674 15.106 18.6023C16.0768 18.3372 16.9709 17.9882 17.7884 17.5554C18.6059 17.1225 19.336 16.6437 19.9787 16.1188C20.6214 15.594 21.1687 15.0678 21.6205 14.5403C22.0722 14.0128 22.4151 13.5258 22.6491 13.0794C22.883 12.633 23 12.2719 23 11.9959C23 11.7254 22.883 11.367 22.6491 10.9206C22.4151 10.4742 22.0722 9.98725 21.6205 9.45971C21.1687 8.93217 20.6201 8.40734 19.9747 7.88522C19.3293 7.36309 18.5992 6.88425 17.7844 6.4487C16.9696 6.01314 16.0768 5.6628 15.106 5.39768C14.1352 5.13256 13.0985 5 11.996 5C10.9095 5 9.88363 5.13256 8.91822 5.39768C7.95282 5.6628 7.0627 6.01314 6.24789 6.4487C5.43308 6.88425 4.70163 7.36309 4.05354 7.88522C3.40545 8.40734 2.85417 8.93217 2.3997 9.45971C1.94524 9.98725 1.59834 10.4742 1.359 10.9206C1.11967 11.367 1 11.7254 1 11.9959C1 12.2719 1.11967 12.633 1.359 13.0794C1.59834 13.5258 1.94524 14.0128 2.3997 14.5403C2.85417 15.0678 3.40545 15.594 4.05354 16.1188C4.70163 16.6437 5.43308 17.1225 6.24789 17.5554C7.0627 17.9882 7.95282 18.3372 8.91822 18.6023C9.88363 18.8674 10.9095 19 11.996 19ZM12.004 16.3542C11.4017 16.3542 10.8369 16.2406 10.3099 16.0133C9.78279 15.7861 9.32025 15.4709 8.92226 15.0678C8.52426 14.6647 8.21232 14.2008 7.98643 13.6759C7.76054 13.1511 7.6476 12.5938 7.6476 12.0041C7.64222 11.3927 7.75247 10.8245 7.97836 10.2997C8.20425 9.77487 8.5162 9.31226 8.91419 8.91188C9.31219 8.51149 9.77606 8.20038 10.3058 7.97854C10.8356 7.75671 11.4017 7.64579 12.004 7.64579C12.6064 7.64579 13.1711 7.75671 13.6982 7.97854C14.2253 8.20038 14.6865 8.51149 15.0818 8.91188C15.4771 9.31226 15.789 9.77487 16.0176 10.2997C16.2462 10.8245 16.3605 11.3927 16.3605 12.0041C16.3605 12.5938 16.2462 13.1511 16.0176 13.6759C15.789 14.2008 15.4771 14.6647 15.0818 15.0678C14.6865 15.4709 14.2253 15.7861 13.6982 16.0133C13.1711 16.2406 12.6064 16.3542 12.004 16.3542H12.004ZM11.996 13.6678C12.4585 13.6678 12.8525 13.5042 13.1779 13.1768C13.5032 12.8495 13.6659 12.4585 13.6659 12.0041C13.6659 11.5496 13.5032 11.1573 13.1779 10.8272C12.8525 10.4972 12.4585 10.3322 11.996 10.3322C11.5388 10.3322 11.1475 10.4972 10.8221 10.8272C10.4968 11.1573 10.3341 11.5496 10.3341 12.0041C10.3341 12.4585 10.4968 12.8495 10.8221 13.1768C11.1475 13.5042 11.5388 13.6678 11.996 13.6678Z" fill="#AAB0B7"/>
</svg>
