<svg width="481" height="480" viewBox="0 0 481 480" fill="none" xmlns="http://www.w3.org/2000/svg">
<path d="M0 239.993C0 372.326 107.666 479.986 240.006 479.986C298.267 479.986 353.369 459.363 396.965 421.566L449.595 474.898C460.263 485.706 478.798 478.219 478.871 462.966L479.899 247.039C483.857 110.846 374.012 0 240.006 0C107.666 0 0 107.659 0 239.993Z" fill="white"/>
<path d="M390 239.995C390 322.702 322.709 389.989 239.998 389.989C203.584 389.989 169.146 377.1 141.899 353.477L109.005 386.809C102.337 393.564 90.7532 388.885 90.7076 379.352L90.0648 244.398C87.5914 159.278 156.244 89.9999 239.998 89.9999C322.709 89.9999 390 157.287 390 239.995Z" fill="#4284FF"/>
<path d="M390.209 239.998C390.209 157.692 323.31 89.9736 240.213 90.0021L240.213 390C322.925 390 390.209 322.709 390.209 239.998Z" fill="#377DFF"/>
<path d="M176.44 271.708L304.702 271.708C310.605 271.708 315.39 276.494 315.39 282.397C315.39 288.3 310.605 293.086 304.702 293.086L176.44 293.086C170.537 293.086 165.752 288.3 165.752 282.397C165.752 276.494 170.537 271.708 176.44 271.708Z" fill="#BCD3FF"/>
<path d="M315.393 282.397C315.393 276.497 310.604 271.708 304.704 271.708L240.213 271.708L240.213 293.086L304.704 293.086C310.604 293.086 315.393 288.298 315.393 282.397Z" fill="#98BCFE"/>
<path d="M304.702 250.33L176.44 250.33C170.537 250.33 165.752 245.544 165.752 239.641C165.752 233.738 170.537 228.952 176.44 228.952L304.702 228.952C310.605 228.952 315.39 233.738 315.39 239.641C315.39 245.544 310.604 250.33 304.702 250.33Z" fill="#BCD3FF"/>
<path d="M315.393 239.641C315.393 233.741 310.604 228.952 304.704 228.952L240.213 228.952L240.213 250.33L304.704 250.33C310.604 250.33 315.393 245.542 315.393 239.641Z" fill="#98BCFE"/>
<path d="M304.702 207.574L176.44 207.574C170.537 207.574 165.752 202.788 165.752 196.885C165.752 190.982 170.537 186.196 176.44 186.196L304.702 186.196C310.605 186.196 315.39 190.982 315.39 196.885C315.39 202.788 310.604 207.574 304.702 207.574Z" fill="#BCD3FF"/>
<path d="M315.393 196.885C315.393 190.985 310.604 186.196 304.704 186.196L240.213 186.196L240.213 207.574L304.704 207.574C310.604 207.574 315.393 202.785 315.393 196.885Z" fill="#98BCFE"/>
</svg>
