<svg width="512" height="512" viewBox="0 0 512 512" fill="none" xmlns="http://www.w3.org/2000/svg">
<g clip-path="url(#clip0)">
<path d="M-1.44414 245.642C0.0861877 178.661 27.6243 116.243 76.0862 69.887C124.481 23.6017 188.035 -1.19139 255.025 0.0468966C322.039 -1.20701 385.57 23.6017 433.961 69.887C482.427 116.243 509.961 178.661 511.495 245.638L511.499 245.849V246.059C511.147 314.318 481.863 379.216 431.022 424.701V486.588C431.022 498.599 422.618 509.06 411.045 511.467C409.331 511.822 407.605 512.002 405.887 512.002C401.229 512.002 396.65 510.701 392.618 508.189L342.783 477.115C314.677 486.939 285.35 491.916 255.534 491.916H255.159C253.507 491.947 251.875 491.963 250.227 491.963C184.994 491.959 123.323 467.252 76.0862 422.076C27.6243 375.72 0.0861877 313.302 -1.44414 246.325L-1.45197 245.981L-1.44414 245.642ZM96.9042 400.396C139.581 441.216 195.632 463.056 254.728 461.892L254.892 461.888H255.057C282.787 461.951 310.078 457.134 336.133 447.599C342.575 445.244 349.593 445.963 355.389 449.576L400.935 477.97V421.045C400.935 414.693 403.703 408.65 408.528 404.466C454.481 364.595 481.037 306.884 481.409 246.114C480.008 187.216 455.773 132.34 413.143 91.5668C370.47 50.7502 314.403 28.9181 255.323 30.0743L255.025 30.0783L254.728 30.0743C195.644 28.9298 139.581 50.7502 96.9042 91.5668C54.3132 132.305 30.0784 187.137 28.642 245.981C30.0784 304.829 54.3132 359.658 96.9042 400.396V400.396Z" fill="white"/>
<path d="M144.806 174.274H365.245C373.55 174.274 380.286 180.993 380.286 189.286C380.286 197.579 373.55 204.301 365.245 204.301H144.806C136.497 204.301 129.761 197.579 129.761 189.286C129.761 180.993 136.497 174.274 144.806 174.274Z" fill="white"/>
<path d="M144.806 240.688H365.245C373.55 240.688 380.286 247.411 380.286 255.7C380.286 263.993 373.55 270.716 365.245 270.716H144.806C136.497 270.716 129.761 263.993 129.761 255.7C129.761 247.411 136.497 240.688 144.806 240.688V240.688Z" fill="white"/>
<path d="M144.806 307.103H253.19C261.495 307.103 268.231 313.825 268.231 322.118C268.231 330.407 261.495 337.13 253.19 337.13H144.806C136.497 337.13 129.761 330.407 129.761 322.118C129.761 313.825 136.497 307.103 144.806 307.103Z" fill="white"/>
</g>
<defs>
<clipPath id="clip0">
<rect width="512" height="512" fill="white" transform="matrix(-1 0 0 1 512 0)"/>
</clipPath>
</defs>
</svg>
