<svg width="24" height="24" viewBox="0 0 24 24" fill="none" xmlns="http://www.w3.org/2000/svg">
<path fill-rule="evenodd" clip-rule="evenodd" d="M5.48974 9.45413C5.59548 9.72505 5.7609 9.96786 5.97336 10.164C6.18582 10.3601 6.43969 10.5043 6.71554 10.5856L12.7825 12L6.77259 13.3359C6.49037 13.4143 6.22998 13.5581 6.01196 13.756C5.79394 13.9539 5.62428 14.2006 5.51636 14.4764L4.07379 19.5862C3.99486 19.7844 3.97879 20.0027 4.02781 20.2106C4.07683 20.4185 4.18851 20.6058 4.34731 20.7464C4.50612 20.8869 4.70416 20.9738 4.9139 20.995C5.12365 21.0161 5.33467 20.9704 5.51763 20.8643L19.4768 12.9001C19.6354 12.8111 19.7675 12.6807 19.8595 12.5224C19.9515 12.3641 20 12.1837 20 12C20 11.8163 19.9515 11.6359 19.8595 11.4776C19.7675 11.3193 19.6354 11.1889 19.4768 11.0999L5.51763 3.13575C5.33467 3.0296 5.12365 2.98391 4.9139 3.00504C4.70416 3.02616 4.50612 3.11305 4.34731 3.25362C4.18851 3.3942 4.07683 3.58147 4.02781 3.7894C3.97879 3.99733 3.99486 4.21559 4.07379 4.41383L5.48974 9.45413Z" fill="#AAB0B7"/>
</svg>
